<svg width="500" height="500" viewBox="0 0 500 500" fill="none" xmlns="http://www.w3.org/2000/svg">
<path d="M234 13C234.83 13.165 235.66 13.33 236.516 13.5C249.111 16.4463 259.94 23.0662 270 31C270.835 31.6316 271.671 32.2633 272.531 32.9141C289.61 47.3446 299.687 70.4114 301.719 92.3164C301.812 93.532 301.904 94.7476 302 96C302.072 96.8959 302.144 97.7918 302.219 98.7148C302.96 118.277 297.942 138.75 287 155C285.769 156.957 284.54 158.915 283.312 160.875C279.115 167.495 279.115 167.495 277 170C276.34 170 275.68 170 275 170C274.66 171.083 274.66 171.083 274.312 172.188C272.737 175.564 270.791 177.558 268 180C267.34 180 266.68 180 266 180C265.835 180.681 265.67 181.361 265.5 182.062C263.661 185.664 261.383 187.528 258.301 190.086C255.062 192.78 251.986 195.647 248.883 198.496C247 200 247 200 245 200C245 200.66 245 201.32 245 202C243.627 203.178 242.196 204.288 240.75 205.375C234.702 210.21 229.23 215.535 223.75 221C222.899 221.842 222.048 222.684 221.171 223.552C216.497 228.247 212.267 233.011 208.384 238.383C207.927 238.916 207.47 239.45 207 240C206.34 240 205.68 240 205 240C204.75 240.713 204.5 241.426 204.242 242.16C202.873 245.29 201.176 247.709 199.125 250.438C193.765 257.277 193.765 257.277 190 265C189.34 265 188.68 265 188 265C187.83 265.557 187.66 266.114 187.484 266.688C186.27 270.51 185.027 273.95 183.125 277.5C180.978 281.627 179.647 285.935 178.312 290.375C178.098 291.07 177.884 291.766 177.663 292.482C168.99 322.301 175.469 358.781 190 385.688C191.472 388.332 192.971 390.951 194.527 393.547C194.993 394.336 195.458 395.125 195.937 395.938C196.57 396.972 196.57 396.972 197.215 398.027C198.173 400.434 197.863 401.604 197 404C194.461 404.944 193.391 405.169 190.859 404.074C190.163 403.617 189.467 403.159 188.75 402.688C188.044 402.238 187.337 401.788 186.609 401.324C186.078 400.887 185.547 400.45 185 400C185 399.34 185 398.68 185 398C184.459 397.763 183.917 397.526 183.359 397.281C180.367 395.657 177.888 393.65 175.25 391.5C174.265 390.706 173.28 389.912 172.266 389.094C171.518 388.403 170.77 387.712 170 387C170 386.34 170 385.68 170 385C169.361 384.732 168.721 384.464 168.062 384.188C166 383 166 383 165 380C164.34 379.67 163.68 379.34 163 379C162.34 378.67 161.68 378.34 161 378C160.505 376.515 160.505 376.515 160 375C159.34 374.67 158.68 374.34 158 374C157.34 373.67 156.68 373.34 156 373C155.505 371.515 155.505 371.515 155 370C154.01 369.67 153.02 369.34 152 369C139 354.947 139 354.947 139 350C138.34 350 137.68 350 137 350C118.718 323.614 111.845 287.835 117.485 256.412C121.892 234.208 130.553 211.711 145 194C145.648 193.175 146.297 192.35 146.965 191.5C150.447 187.087 153.908 182.871 158 179C158.742 178.257 159.485 177.515 160.25 176.75C161.157 175.842 162.065 174.935 163 174C163.672 173.317 164.343 172.634 165.035 171.93C169.308 167.606 173.645 163.45 178.273 159.508C180.03 158.022 180.03 158.022 181.602 156.305C183 155 183 155 185 155C185.268 154.361 185.536 153.721 185.812 153.062C187 151 187 151 190 150C190.686 148.677 191.348 147.341 192 146C194.526 142.827 197.137 139.863 200 137C216.506 117.127 225.62 95.0053 224 69C223.38 65.1428 222.345 61.6595 221 58C220.722 57.1144 220.443 56.2288 220.156 55.3164C218.426 50.0589 216.23 45.5825 213.312 40.875C209.544 34.6325 208.173 29.9091 209.687 22.75C211.591 18.7622 213.014 15.9267 217.168 13.9883C223.101 11.9555 227.907 11.6915 234 13Z" fill="#3AEEC4"/>
<path d="M354 100C363.02 104.085 368.19 113.28 372 122C372.804 123.794 372.804 123.794 373.625 125.625C382.531 151.326 379.036 180.557 368 205C366.162 208.458 364.155 211.734 362 215C361.488 215.914 360.976 216.828 360.449 217.77C359.732 218.874 359.732 218.874 359 220C358.34 220 357.68 220 357 220C356.814 220.681 356.629 221.361 356.438 222.063C354.752 225.507 352.667 227.497 349.918 230.121C348.038 231.962 346.332 233.874 344.625 235.875C338.141 243.353 331.13 249.897 323.383 256.055C321.453 257.631 319.735 259.222 318 261C316.085 262.716 314.142 264.398 312.199 266.082C310.712 267.379 309.235 268.69 307.77 270.012C307.062 270.647 306.354 271.283 305.625 271.938C304.978 272.524 304.331 273.111 303.664 273.715C302 275 302 275 300 275C299.732 275.639 299.464 276.279 299.188 276.938C298 279 298 279 295 280C294.322 281.328 293.657 282.662 293 284C291.16 285.781 291.16 285.781 289.062 287.5C286.85 289.32 285.071 290.903 283.371 293.219C282.919 293.807 282.466 294.394 282 295C281.34 295 280.68 295 280 295C279.773 295.536 279.546 296.073 279.312 296.625C276.904 300.984 273.5 304.501 270 308C267.218 311.314 267.218 311.314 265 315C264.34 315 263.68 315 263 315C262.574 315.881 262.574 315.881 262.14 316.779C261.107 318.791 259.995 320.648 258.758 322.539C254.054 329.824 249.752 336.732 247 345C246.505 346.338 246.007 347.675 245.508 349.012C236.905 372.615 236.312 398.847 247 422C248.888 425.626 250.944 429.15 253.031 432.664C254.749 435.575 256.36 438.512 257.938 441.5C260.634 446.507 263.671 451.25 266.842 455.967C269.397 459.829 271.283 463.705 273 468C273.385 468.846 273.771 469.691 274.168 470.562C275.162 473.475 275.301 475.927 275.312 479C275.329 480.011 275.346 481.021 275.363 482.062C274.949 485.415 274.027 487.318 272 490C271.34 490 270.68 490 270 490C270 490.66 270 491.32 270 492C265.422 494.637 261.165 494.645 256 494C251.446 491.93 249.482 489.78 247.609 485.165C246.388 480.826 246.552 476.353 246.5 471.875C245.724 446.014 233.343 425.172 217.02 405.629C214.679 402.582 212.832 399.363 211 396C210.634 395.343 210.267 394.686 209.89 394.009C205.371 385.872 201.133 378.113 199 369C198.478 367.37 198.478 367.37 197.945 365.707C195.009 356.005 194.593 346.391 194.562 336.313C194.553 335.019 194.543 333.725 194.532 332.392C194.714 311.871 200.829 291.873 212.605 275.035C213.59 273.598 214.517 272.12 215.398 270.617C224.353 255.984 237.108 241.321 250 230C250.66 230 251.32 230 252 230C252.227 229.423 252.454 228.845 252.688 228.25C254.344 225.41 256.395 223.985 259 222C259.722 221.258 260.444 220.515 261.188 219.75C263 218 263 218 265 218C265.495 216.515 265.495 216.515 266 215C267.672 213.316 267.672 213.316 269.75 211.563C270.476 210.944 271.201 210.325 271.949 209.688C273.459 208.445 275.003 207.242 276.562 206.063C279.473 203.6 281.833 200.844 284.305 197.949C286.422 195.514 288.719 193.281 291 191C291.825 190.01 292.65 189.02 293.5 188C296 185 296 185 298.312 182.75C304.152 176.775 309.06 170.355 313 163C313.449 162.299 313.897 161.598 314.359 160.875C318.975 153.642 322.035 146.006 325 138C325.383 136.988 325.766 135.976 326.16 134.934C328.204 129.221 329.456 123.651 330.438 117.688C331.649 110.515 333.157 105.75 339.293 101.359C344.025 98.9831 348.834 99.3877 354 100Z" fill="#549DFB"/>
<path d="M364.902 270.766C371.246 274.708 374.114 281.319 375.812 288.375C376.408 299.879 376.496 310.657 371.937 321.375C371.632 322.107 371.326 322.84 371.011 323.594C368.17 330.118 364.506 335.486 360 341C359.469 341.757 358.938 342.513 358.391 343.293C357.702 344.138 357.702 344.138 357 345C356.34 345 355.68 345 355 345C354.783 345.541 354.567 346.083 354.344 346.641C352.535 349.816 350.083 352.207 347.5 354.75C347.001 355.257 346.502 355.763 345.988 356.285C342.253 360 342.253 360 340 360C339.732 360.639 339.464 361.279 339.187 361.937C338 364 338 364 335 365C334.505 366.485 334.505 366.485 334 368C331.864 369.771 329.737 371.431 327.5 373.062C323.137 375.973 323.137 375.973 320 380C318.921 380.644 318.921 380.644 317.82 381.301C314.535 383.28 311.75 385.672 308.875 388.187C303.902 392.473 298.806 396.457 293.437 400.246C286.234 405.43 280.51 411.479 274.77 418.207C274.186 418.799 273.602 419.39 273 420C272.34 420 271.68 420 271 420C270.67 421.32 270.34 422.64 270 424C264.855 425.715 264.855 425.715 262 426C258.294 423.596 256.603 420.046 255 416C250.215 393.273 257.481 369.536 269 350C270.247 348.17 271.531 346.381 272.858 344.609C274.027 342.962 274.99 341.282 275.937 339.5C277.773 336.166 280.06 333.469 282.633 330.676C284.094 328.885 285.041 327.097 286 325C286.66 325 287.32 325 288 325C288.34 323.917 288.34 323.917 288.687 322.812C290.287 319.384 292.259 317.622 295 315C296.279 313.549 297.549 312.09 298.812 310.625C302.585 306.348 306.637 302.658 311 299C311.656 298.417 312.312 297.835 312.988 297.234C313.611 296.683 314.234 296.131 314.875 295.562C315.429 295.069 315.984 294.575 316.555 294.066C318 293 318 293 320 293C320.495 291.515 320.495 291.515 321 290C321.99 289.67 322.98 289.34 324 289C325.342 287.675 326.674 286.341 328 285C353.371 266.125 353.371 266.125 364.902 270.766Z" fill="#6C76FD"/>
<path d="M270 211C270.99 211.495 270.99 211.495 272 212C270.88 215.36 269.628 216.691 267 219C266.34 219 265.68 219 265 219C265 219.66 265 220.32 265 221C263.25 222.727 263.25 222.727 261 224.625C260.257 225.257 259.515 225.888 258.75 226.539C258.173 227.021 257.595 227.503 257 228C257.66 228.66 258.32 229.32 259 230C258.01 230 257.02 230 256 230C255.67 232.31 255.34 234.62 255 237C254.34 236.67 253.68 236.34 253 236C253 235.34 253 234.68 253 234C250.245 236.125 247.748 238.258 245.312 240.75C243 243 243 243 241 243C240.732 243.557 240.464 244.114 240.188 244.688C239.796 245.451 239.404 246.214 239 247C238.567 247.846 238.134 248.691 237.688 249.562C235.775 252.324 233.961 253.479 231 255C231.495 256.98 231.495 256.98 232 259C226.25 263.875 226.25 263.875 224 265C223.732 265.743 223.464 266.485 223.188 267.25C222 270 222 270 219.625 272.312C216.46 275.553 214.821 278.9 213 283C212.34 283 211.68 283 211 283C210.897 283.681 210.794 284.361 210.688 285.062C210.118 287.498 209.441 289.424 208.438 291.688C206.867 294.704 206.867 294.704 207 297C206.01 297.99 206.01 297.99 205 299C205.32 301.603 205.32 301.603 206 304C204.515 304.99 204.515 304.99 203 306C201.818 309.388 201.818 309.388 201 313C200.794 313.681 200.588 314.361 200.375 315.062C199.905 317.162 199.905 317.162 200 320C200 323 200 323 199.539 324.801C197.59 332.754 197.852 340.967 199 349C199 350.32 199 351.64 199 353C199.303 355.088 199.638 357.171 200 359.25C200.186 360.328 200.371 361.405 200.562 362.516C200.707 363.335 200.851 364.155 201 365C201.99 365.33 202.98 365.66 204 366C204 366.66 204 367.32 204 368C204.66 368.33 205.32 368.66 206 369C205.34 369.99 204.68 370.98 204 372C204.66 372.66 205.32 373.32 206 374C206 374.66 206 375.32 206 376C206.33 376.99 206.66 377.98 207 379C208 382 208 382 208 384C208.99 384 209.98 384 211 384C211.495 385.98 211.495 385.98 212 388C212.66 387.01 213.32 386.02 214 385C216.271 388.406 215.988 390.039 215.879 393.996C216.056 396.931 217.208 398.726 219 401C219.66 401.33 220.32 401.66 221 402C221.124 402.928 221.124 402.928 221.25 403.875C221.87 406.368 221.87 406.368 225.062 407.75C226.032 408.162 227.001 408.575 228 409C227.814 410.176 227.814 410.176 227.625 411.375C228.171 416.658 230.641 420.909 234 425C236.014 425.743 236.014 425.743 238 426C240.25 427.562 240.25 427.562 242 429C242.66 428.67 243.32 428.34 244 428C244.66 427.67 245.32 427.34 246 427C246.33 426.01 246.66 425.02 247 424C249.842 426.474 251.162 429.109 252.75 432.5C255.747 438.648 259.239 444.297 263 450C270.506 461.437 270.506 461.437 273 468C273.348 468.766 273.696 469.531 274.055 470.32C275.125 473.354 275.3 475.789 275.312 479C275.329 480.011 275.346 481.021 275.363 482.062C274.949 485.415 274.027 487.318 272 490C271.34 490 270.68 490 270 490C270 490.66 270 491.32 270 492C265.422 494.637 261.165 494.645 256 494C251.446 491.93 249.482 489.78 247.609 485.165C246.388 480.826 246.552 476.353 246.5 471.875C245.724 446.014 233.343 425.172 217.02 405.629C214.679 402.582 212.832 399.363 211 396C210.634 395.343 210.267 394.686 209.89 394.009C205.371 385.872 201.133 378.113 199 369C198.652 367.913 198.304 366.827 197.945 365.707C195.009 356.005 194.593 346.391 194.562 336.312C194.553 335.019 194.543 333.725 194.532 332.392C194.714 311.871 200.829 291.873 212.605 275.035C213.59 273.598 214.517 272.12 215.398 270.617C224.353 255.984 237.108 241.321 250 230C250.66 230 251.32 230 252 230C252.227 229.423 252.454 228.845 252.688 228.25C254.344 225.41 256.395 223.985 259 222C259.722 221.257 260.444 220.515 261.188 219.75C263 218 263 218 265 218C265.33 217.01 265.66 216.02 266 215C267.294 213.628 268.623 212.288 270 211Z" fill="#4699FA"/>
<path d="M258 23C279.021 35.4296 292.82 54.5201 299.495 77.9795C300.974 83.8993 301.537 89.9297 302 96C302.108 97.3438 302.108 97.3438 302.219 98.7148C302.96 118.277 297.942 138.75 287 155C285.769 156.957 284.54 158.915 283.312 160.875C279.115 167.495 279.115 167.495 277 170C276.34 170 275.68 170 275 170C274.773 170.722 274.546 171.444 274.312 172.188C272.737 175.564 270.791 177.558 268 180C267.34 180 266.68 180 266 180C265.835 180.681 265.67 181.361 265.5 182.062C263.661 185.664 261.383 187.528 258.301 190.086C255.062 192.78 251.986 195.647 248.883 198.496C247 200 247 200 245 200C245 200.66 245 201.32 245 202C243.627 203.178 242.196 204.288 240.75 205.375C231.853 212.46 224.076 220.763 216.11 228.857C213.753 231.251 211.381 233.629 209 236C209.628 233.071 210.586 230.639 212 228C212.66 228 213.32 228 214 228C214 227.34 214 226.68 214 226C214.66 226 215.32 226 216 226C216.083 225.402 216.165 224.804 216.25 224.188C217.209 221.389 218.64 220.696 221 219C221.33 218.01 221.66 217.02 222 216C222.66 216 223.32 216 224 216C224 214.35 224 212.7 224 211C224.66 210.67 225.32 210.34 226 210C226 210.66 226 211.32 226 212C226.619 211.505 227.238 211.01 227.875 210.5C230 209 230 209 232 209C232.33 207.35 232.66 205.7 233 204C233.99 204 234.98 204 236 204C234.515 203.01 234.515 203.01 233 202C233 201.34 233 200.68 233 200C236.228 197.848 237.284 197.799 241 198C241 196.35 241 194.7 241 193C242.114 193.206 243.227 193.412 244.375 193.625C246.169 193.811 246.169 193.811 248 194C249.344 192.656 250.657 191.28 251.938 189.875C254 188 254 188 257 188C256.505 185.525 256.505 185.525 256 183C257.32 182.67 258.64 182.34 260 182C260 181.34 260 180.68 260 180C263.465 179.01 263.465 179.01 267 178C266.01 176.02 266.01 176.02 265 174C265.969 173.649 266.939 173.299 267.938 172.938C271.394 171.25 271.394 171.25 271.875 167.312C271.916 166.219 271.957 165.126 272 164C272.619 163.959 273.238 163.918 273.875 163.875C274.927 163.442 274.927 163.442 276 163C276.268 162.092 276.536 161.185 276.812 160.25C278.266 156.272 279.927 155.302 283.441 153.176C285.318 151.991 285.318 151.991 286 149C286.66 149 287.32 149 288 149C288 147.742 288 146.484 288 145.188C288 142.792 288 140.396 288 138C291 136 291 136 293 136C295.406 128.302 296.143 121.031 296 113C296.99 112.67 297.98 112.34 299 112C298.67 106.39 298.34 100.78 298 95C297.34 95 296.68 95 296 95C295.946 93.5629 295.907 92.1252 295.875 90.6875C295.852 89.887 295.829 89.0865 295.805 88.2617C296 86 296 86 298 83C297.34 83 296.68 83 296 83C296 80.69 296 78.38 296 76C295.34 76 294.68 76 294 76C293.917 74.8863 293.835 73.7725 293.75 72.625C293.421 68.9425 293.421 68.9425 290.938 67.5625C289.978 67.2841 289.978 67.2841 289 67C289.66 67 290.32 67 291 67C290.711 66.2291 290.423 65.4583 290.125 64.6641C289.754 63.6612 289.382 62.6583 289 61.625C288.629 60.6273 288.257 59.6295 287.875 58.6016C287 56 287 56 287 54C286.01 54.66 285.02 55.32 284 56C282.68 56 281.36 56 280 56C280 53.36 280 50.72 280 48C278.68 48 277.36 48 276 48C275.505 44.535 275.505 44.535 275 41C273.515 40.505 273.515 40.505 272 40C271.505 38.515 271.505 38.515 271 37C269 35.7912 269 35.7912 267 35C267 33.68 267 32.36 267 31C266.072 31.165 265.144 31.33 264.188 31.5C261 32 261 32 258 32C256.539 29.3526 256 28.1055 256 25C256.66 25 257.32 25 258 25C258 24.34 258 23.68 258 23Z" fill="#3FA7E9"/>
<path d="M354 100C363.02 104.085 368.19 113.28 372 122C372.536 123.196 373.072 124.393 373.625 125.625C382.531 151.326 379.036 180.557 368 205C366.162 208.458 364.155 211.734 362 215C361.488 215.914 360.976 216.828 360.449 217.77C359.732 218.874 359.732 218.874 359 220C358.34 220 357.68 220 357 220C356.814 220.681 356.629 221.361 356.437 222.063C354.716 225.581 352.492 227.696 349.656 230.352C347.79 232.1 347.79 232.1 346 235C343.375 235.688 343.375 235.688 341 236C341 235.01 341 234.02 341 233C342.32 232.67 343.64 232.34 345 232C345.082 231.237 345.165 230.474 345.25 229.688C346.153 226.453 347.136 225.649 350 224C350.66 224 351.32 224 352 224C352.309 223.381 352.619 222.763 352.937 222.125C353.625 220.75 354.312 219.375 355 218C354.01 218 353.02 218 352 218C352.495 216.515 352.495 216.515 353 215C355.31 214.67 357.62 214.34 360 214C359.965 213.241 359.93 212.481 359.895 211.699C359.867 210.705 359.84 209.711 359.812 208.688C359.76 207.208 359.76 207.208 359.707 205.699C360 203 360 203 361.379 201.199C363 200 363 200 365.125 199.125C367.29 198.116 367.29 198.116 367.75 195.375C367.832 194.591 367.915 193.808 368 193C368.66 193 369.32 193 370 193C370 190.03 370 187.06 370 184C369.01 183.505 369.01 183.505 368 183C368.33 180.69 368.66 178.38 369 176C370.65 176 372.3 176 374 176C374.881 168.766 375.126 161.658 375.062 154.375C375.058 153.371 375.053 152.367 375.049 151.332C375.037 148.888 375.021 146.444 375 144C374.01 143.505 374.01 143.505 373 143C373 139 373 139 374 136C372.68 135.67 371.36 135.34 370 135C370.165 134.072 370.33 133.144 370.5 132.188C371.077 129.044 371.077 129.044 371 126C369.68 125.34 368.36 124.68 367 124C367 122.35 367 120.7 367 119C365.68 119.33 364.36 119.66 363 120C362.546 118.866 362.092 117.731 361.625 116.563C360.429 112.953 360.429 112.953 358 112C358 111.34 358 110.68 358 110C356.68 109.67 355.36 109.34 354 109C352.875 105.25 352.875 105.25 354 103C353.374 103.084 352.747 103.168 352.102 103.254C351.284 103.356 350.467 103.458 349.625 103.563C348.813 103.667 348.001 103.771 347.164 103.879C345 104 345 104 343 103C342.773 103.557 342.546 104.114 342.312 104.688C340.647 107.622 338.378 109.622 336 112C335.67 112.99 335.34 113.98 335 115C335.33 115.66 335.66 116.32 336 117C335.34 117 334.68 117 334 117C334.144 117.592 334.289 118.183 334.437 118.793C335.408 122.925 336.276 126.723 336 131C335.34 131 334.68 131 334 131C333.34 131.66 332.68 132.32 332 133C331.34 133.66 330.68 134.32 330 135C328.554 139.544 327.692 144.225 328 149C326 148 326 148 325 146C322.69 150.62 320.38 155.24 318 160C316.827 155.309 317.282 154.887 319.562 150.875C325.092 140.304 328.664 129.079 330.562 117.313C331.783 110.135 333.193 105.724 339.293 101.359C344.025 98.9831 348.834 99.3877 354 100Z" fill="#A656E9"/>
<path d="M155 184C155.66 184.33 156.32 184.66 157 185C156.214 186.316 155.421 187.628 154.625 188.938C154.184 189.668 153.743 190.399 153.289 191.152C152 193 152 193 150 194C150 194.99 150 195.98 150 197C150 197.99 150 198.98 150 200C148.68 199.67 147.36 199.34 146 199C145.01 201.475 145.01 201.475 144 204C143.34 204 142.68 204 142 204C142.33 205.32 142.66 206.64 143 208C142.196 208.412 141.391 208.825 140.562 209.25C137.892 210.695 137.892 210.695 137.375 212.875C137.251 213.576 137.127 214.277 137 215C136.04 216.69 135.046 218.362 134 220C134.66 220.33 135.32 220.66 136 221C136 221.66 136 222.32 136 223C133.525 223.495 133.525 223.495 131 224C129.663 227.425 128.995 229.855 129.125 233.562C128.971 237.789 127.668 238.847 125 242C124.203 245.188 124.203 245.188 124 248C123.34 248 122.68 248 122 248C121.939 249.071 121.879 250.142 121.816 251.246C121.732 252.643 121.647 254.04 121.562 255.438C121.523 256.145 121.484 256.852 121.443 257.58C121.113 262.887 121.113 262.887 120 264C119.913 265.781 119.893 267.565 119.902 269.348C119.906 270.427 119.909 271.507 119.912 272.619C119.92 273.755 119.929 274.892 119.937 276.062C119.942 277.203 119.947 278.343 119.951 279.518C119.963 282.345 119.979 285.173 120 288C120.66 288.33 121.32 288.66 122 289C121.125 294.75 121.125 294.75 120 297C120.66 297 121.32 297 122 297C121.814 297.598 121.629 298.196 121.437 298.812C120.779 301.164 120.779 301.164 122 304C122.66 304 123.32 304 124 304C124 304.99 124 305.98 124 307C123.34 307 122.68 307 122 307C122.33 307.66 122.66 308.32 123 309C125.025 309.652 125.025 309.652 127 310C126.979 311.052 126.959 312.104 126.937 313.188C126.989 316.351 127.338 318.939 128 322C128 323.32 128 324.64 128 326C128.66 326 129.32 326 130 326C130.33 326.66 130.66 327.32 131 328C131.66 327.67 132.32 327.34 133 327C133.66 327.66 134.32 328.32 135 329C134.625 331.125 134.625 331.125 134 333C134.66 333.33 135.32 333.66 136 334C136 337.3 136 340.6 136 344C139.96 345.162 139.96 345.162 144 345C143.67 347.31 143.34 349.62 143 352C144.32 352 145.64 352 147 352C148.333 353.333 149.667 354.667 151 356C150.01 356.33 149.02 356.66 148 357C148.454 357.577 148.907 358.155 149.375 358.75C151 361 151 361 151.937 363.125C153.258 365.456 154.554 366.021 157 367C157 367.99 157 368.98 157 370C157.66 369.01 158.32 368.02 159 367C160 368 160 368 160.062 371.062C160.042 372.032 160.021 373.001 160 374C158.35 373.34 156.7 372.68 155 372C155 371.34 155 370.68 155 370C154.01 369.67 153.02 369.34 152 369C139 354.947 139 354.947 139 350C138.34 350 137.68 350 137 350C118.718 323.614 111.845 287.835 117.485 256.412C121.842 234.457 130.396 211.342 145 194C146.486 191.928 147.97 189.855 149.437 187.77C151.167 185.81 152.548 184.885 155 184Z" fill="#52EF7B"/>
<path d="M270 211C270.99 211.495 270.99 211.495 272 212C270.88 215.36 269.628 216.691 267 219C266.34 219 265.68 219 265 219C265 219.66 265 220.32 265 221C263.25 222.727 263.25 222.727 261 224.625C260.257 225.257 259.515 225.888 258.75 226.539C258.173 227.021 257.595 227.503 257 228C257.66 228.66 258.32 229.32 259 230C258.01 230 257.02 230 256 230C255.67 232.31 255.34 234.62 255 237C254.34 236.67 253.68 236.34 253 236C253 235.34 253 234.68 253 234C250.245 236.125 247.748 238.258 245.312 240.75C243 243 243 243 241 243C240.732 243.557 240.464 244.114 240.188 244.688C239.796 245.451 239.404 246.214 239 247C238.567 247.846 238.134 248.691 237.688 249.562C235.775 252.324 233.961 253.479 231 255C231.495 256.98 231.495 256.98 232 259C226.25 263.875 226.25 263.875 224 265C223.732 265.743 223.464 266.485 223.188 267.25C222 270 222 270 219.625 272.312C216.46 275.553 214.821 278.9 213 283C212.34 283 211.68 283 211 283C210.897 283.681 210.794 284.361 210.688 285.062C210.118 287.498 209.441 289.424 208.438 291.688C206.867 294.704 206.867 294.704 207 297C206.01 297.99 206.01 297.99 205 299C205.32 301.603 205.32 301.603 206 304C204.515 304.99 204.515 304.99 203 306C201.818 309.388 201.818 309.388 201 313C200.794 313.681 200.588 314.361 200.375 315.062C199.905 317.162 199.905 317.162 200 320C200 323 200 323 199.539 324.801C197.59 332.754 197.852 340.967 199 349C199 350.32 199 351.64 199 353C199.303 355.088 199.638 357.171 200 359.25C200.186 360.328 200.371 361.405 200.562 362.516C200.707 363.335 200.851 364.155 201 365C201.99 365.33 202.98 365.66 204 366C204 366.66 204 367.32 204 368C204.66 368.33 205.32 368.66 206 369C205.34 369.99 204.68 370.98 204 372C204.66 372.66 205.32 373.32 206 374C206 374.66 206 375.32 206 376C206.33 376.99 206.66 377.98 207 379C208 382 208 382 208 384C208.99 384 209.98 384 211 384C211.33 384.99 211.66 385.98 212 387C211.67 387.66 211.34 388.32 211 389C210.34 389 209.68 389 209 389C208.67 388.01 208.34 387.02 208 386C207.01 385.67 206.02 385.34 205 385C195.543 371.485 194.526 351.891 194.5 336C194.494 334.725 194.488 333.451 194.481 332.138C194.753 311.724 200.893 291.782 212.605 275.035C213.59 273.598 214.517 272.12 215.398 270.617C224.353 255.984 237.108 241.321 250 230C250.66 230 251.32 230 252 230C252.227 229.423 252.454 228.845 252.688 228.25C254.344 225.41 256.395 223.985 259 222C259.722 221.257 260.444 220.515 261.188 219.75C263 218 263 218 265 218C265.33 217.01 265.66 216.02 266 215C267.294 213.628 268.623 212.288 270 211Z" fill="#4BE1DA"/>
<path d="M155 184C155.66 184.33 156.32 184.66 157 185C156.214 186.316 155.421 187.628 154.625 188.938C154.184 189.668 153.743 190.399 153.289 191.152C152 193 152 193 150 194C150 194.99 150 195.98 150 197C150 197.99 150 198.98 150 200C148.68 199.67 147.36 199.34 146 199C145.01 201.475 145.01 201.475 144 204C143.34 204 142.68 204 142 204C142.33 205.32 142.66 206.64 143 208C142.196 208.412 141.391 208.825 140.562 209.25C137.892 210.695 137.892 210.695 137.375 212.875C137.251 213.576 137.127 214.277 137 215C136.04 216.69 135.046 218.362 134 220C134.66 220.33 135.32 220.66 136 221C136 221.66 136 222.32 136 223C133.525 223.495 133.525 223.495 131 224C129.663 227.425 128.995 229.855 129.125 233.562C128.971 237.789 127.668 238.847 125 242C124.203 245.188 124.203 245.188 124 248C123.34 248 122.68 248 122 248C121.939 249.071 121.879 250.142 121.816 251.246C121.732 252.643 121.647 254.04 121.562 255.438C121.523 256.145 121.484 256.852 121.443 257.58C121.113 262.887 121.113 262.887 120 264C119.082 269.984 118.721 275.957 118.437 282C118.394 282.87 118.351 283.74 118.307 284.637C118.202 286.758 118.1 288.879 118 291C110.473 277.566 117.352 254.822 121 241C125.734 224.664 134.035 207.021 145 194C146.486 191.928 147.97 189.855 149.438 187.77C151.167 185.81 152.548 184.885 155 184Z" fill="#54FB76"/>
<path d="M376 146C376.66 146 377.32 146 378 146C378.874 170.69 375.872 193.978 362 215C361.488 215.914 360.976 216.828 360.449 217.77C359.971 218.506 359.493 219.242 359 220C358.34 220 357.68 220 357 220C356.814 220.681 356.629 221.361 356.438 222.062C354.716 225.581 352.492 227.696 349.656 230.352C347.79 232.1 347.79 232.1 346 235C343.375 235.688 343.375 235.688 341 236C341 235.01 341 234.02 341 233C342.98 232.505 342.98 232.505 345 232C345.083 231.237 345.165 230.474 345.25 229.688C346.153 226.453 347.136 225.649 350 224C350.66 224 351.32 224 352 224C352.309 223.381 352.619 222.762 352.938 222.125C353.625 220.75 354.312 219.375 355 218C354.01 218 353.02 218 352 218C352.33 217.01 352.66 216.02 353 215C356.465 214.505 356.465 214.505 360 214C359.965 213.241 359.93 212.481 359.895 211.699C359.867 210.705 359.84 209.711 359.812 208.688C359.76 207.208 359.76 207.208 359.707 205.699C360 203 360 203 361.379 201.199C363 200 363 200 365.125 199.125C367.29 198.116 367.29 198.116 367.75 195.375C367.874 194.199 367.874 194.199 368 193C368.66 193 369.32 193 370 193C370 190.03 370 187.06 370 184C369.34 183.67 368.68 183.34 368 183C368.33 180.69 368.66 178.38 369 176C370.65 176 372.3 176 374 176C375.163 166.03 375.546 156.022 376 146Z" fill="#A946E9"/>
<path d="M315 295C317.25 295.25 317.25 295.25 319 296C318.67 297.32 318.34 298.64 318 300C317.34 300 316.68 300 316 300C316 300.66 316 301.32 316 302C315.34 302 314.68 302 314 302C313.67 302.66 313.34 303.32 313 304C312.34 303.67 311.68 303.34 311 303C311 304.32 311 305.64 311 307C308.625 308.562 308.625 308.562 306 310C305.34 310.99 304.68 311.98 304 313C303.34 313 302.68 313 302 313C301.732 313.557 301.464 314.114 301.188 314.688C300 317 300 317 298.438 319.438C296.988 322.021 296.416 324.088 296 327C294.515 327.495 294.515 327.495 293 328C291.292 329.624 289.624 331.292 288 333C287.34 333.66 286.68 334.32 286 335C285.34 335.99 284.68 336.98 284 338C283.334 338.289 282.667 338.577 281.98 338.875C279.786 339.86 279.786 339.86 278.988 342.312C278.765 343.199 278.542 344.086 278.312 345C277.024 349.952 277.024 349.952 276 352C274.02 352 272.04 352 270 352C271.155 343.691 277.141 336.532 282.738 330.535C284.162 328.803 285.066 327.031 286 325C286.66 325 287.32 325 288 325C288.227 324.278 288.454 323.556 288.688 322.812C290.287 319.384 292.259 317.622 295 315C296.279 313.549 297.549 312.09 298.812 310.625C302.064 306.931 305.481 303.67 309.25 300.512C311.166 298.92 311.166 298.92 313.25 296.5C313.827 296.005 314.405 295.51 315 295Z" fill="#409BED"/>
<path d="M206 385C206.99 385.33 207.98 385.66 209 386C209 386.99 209 387.98 209 389C212.278 388.248 212.278 388.248 214 385C216.271 388.406 215.988 390.039 215.879 393.996C216.056 396.931 217.208 398.726 219 401C219.66 401.33 220.32 401.66 221 402C221.124 402.928 221.124 402.928 221.25 403.875C221.87 406.368 221.87 406.368 225.062 407.75C226.032 408.162 227.001 408.575 228 409C227.876 409.784 227.752 410.567 227.625 411.375C228.171 416.658 230.641 420.909 234 425C236.014 425.743 236.014 425.743 238 426C240.25 427.562 240.25 427.562 242 429C242.66 428.67 243.32 428.34 244 428C244.66 427.67 245.32 427.34 246 427C246.33 426.01 246.66 425.02 247 424C249.972 426.548 251.415 429.453 253 433C253 433.66 253 434.32 253 435C252.34 435 251.68 435 251 435C250.505 435.99 250.505 435.99 250 437C249.34 437 248.68 437 248 437C248 436.01 248 435.02 248 434C247.629 434.66 247.257 435.32 246.875 436C245 438 245 438 242.117 438.477C239 438 239 438 237.016 435.648C236.433 434.568 235.85 433.488 235.25 432.375C234.575 431.178 233.895 429.984 233.211 428.793C232.856 428.17 232.501 427.546 232.136 426.904C230.227 423.705 228.061 420.701 225.875 417.688C225.236 416.802 225.236 416.802 224.584 415.898C222.306 412.754 219.983 409.647 217.625 406.562C215.079 403.196 213.008 399.706 211 396C210.553 395.219 210.105 394.438 209.645 393.633C209.184 392.826 208.724 392.019 208.25 391.188C207.608 390.064 207.608 390.064 206.953 388.918C206 387 206 387 206 385Z" fill="#41A8FB"/>
<path d="M371 314C371.66 314 372.32 314 373 314C373.802 324.464 364.673 335 358.75 343.062C358.173 343.702 357.595 344.341 357 345C356.34 345 355.68 345 355 345C354.783 345.541 354.567 346.083 354.344 346.641C352.535 349.816 350.083 352.207 347.5 354.75C347.001 355.257 346.502 355.763 345.988 356.285C342.253 360 342.253 360 340 360C339.732 360.639 339.464 361.279 339.188 361.938C338 364 338 364 335 365C334.67 365.99 334.34 366.98 334 368C332.125 369.75 332.125 369.75 330 371C329.01 370.67 328.02 370.34 327 370C327.351 369.237 327.701 368.474 328.062 367.688C329.324 364.952 329.324 364.952 328 362C328.33 361.34 328.66 360.68 329 360C330.65 360 332.3 360 334 360C334.33 360.66 334.66 361.32 335 362C335.34 360.577 335.34 360.577 335.688 359.125C337 356 337 356 339.375 354.688C340.241 354.461 341.108 354.234 342 354C342.763 353.794 343.526 353.588 344.312 353.375C345.148 353.189 345.148 353.189 346 353C345.34 351.68 344.68 350.36 344 349C345.812 346.5 345.812 346.5 348 344C348.99 344 349.98 344 351 344C352.32 341.69 353.64 339.38 355 337C356.32 337 357.64 337 359 337C359.33 334.36 359.66 331.72 360 329C360.99 329 361.98 329 363 329C363.99 328.67 364.98 328.34 366 328C365.938 327.072 365.876 326.144 365.812 325.188C366 322 366 322 367.375 320.438C367.911 319.963 368.447 319.489 369 319C370.19 316.401 370.19 316.401 371 314Z" fill="#8C45F0"/>
<path d="M258 23C277.522 34.5432 290.485 51.5115 297.875 72.875C298.103 73.5178 298.33 74.1605 298.565 74.8228C299.686 78.2098 300.376 80.6188 299 84C298.01 83.67 297.02 83.34 296 83C296 80.69 296 78.38 296 76C295.34 76 294.68 76 294 76C293.917 74.8863 293.835 73.7725 293.75 72.625C293.421 68.9425 293.421 68.9425 290.938 67.5625C289.978 67.2841 289.978 67.2841 289 67C289.66 67 290.32 67 291 67C290.711 66.2291 290.423 65.4583 290.125 64.6641C289.754 63.6612 289.382 62.6583 289 61.625C288.629 60.6273 288.257 59.6295 287.875 58.6016C287 56 287 56 287 54C286.01 54.66 285.02 55.32 284 56C282.68 56 281.36 56 280 56C280 53.36 280 50.72 280 48C278.68 48 277.36 48 276 48C275.67 45.69 275.34 43.38 275 41C274.01 40.67 273.02 40.34 272 40C271.67 39.01 271.34 38.02 271 37C269 35.7912 269 35.7912 267 35C267 33.68 267 32.36 267 31C266.072 31.165 265.144 31.33 264.188 31.5C261 32 261 32 258 32C256.539 29.3526 256 28.1055 256 25C256.66 25 257.32 25 258 25C258 24.34 258 23.68 258 23Z" fill="#4BCFE8"/>
<path d="M270 211C270.66 211.33 271.32 211.66 272 212C270.88 215.36 269.628 216.691 267 219C266.34 219 265.68 219 265 219C265 219.66 265 220.32 265 221C263.25 222.727 263.25 222.727 261 224.625C260.257 225.257 259.515 225.888 258.75 226.539C258.173 227.021 257.595 227.503 257 228C257.66 228.66 258.32 229.32 259 230C258.01 230 257.02 230 256 230C255.67 232.31 255.34 234.62 255 237C254.34 236.67 253.68 236.34 253 236C253 235.34 253 234.68 253 234C250.245 236.125 247.748 238.258 245.312 240.75C243 243 243 243 241 243C240.732 243.557 240.464 244.114 240.188 244.688C239.796 245.451 239.404 246.214 239 247C238.35 248.268 238.35 248.268 237.688 249.562C235.775 252.324 233.961 253.479 231 255C231.33 256.32 231.66 257.64 232 259C226.25 263.875 226.25 263.875 224 265C223.732 265.743 223.464 266.485 223.188 267.25C221.498 271.162 218.837 274.082 215 276C215.376 270.172 217.123 266.794 220.812 262.438C221.546 261.541 221.546 261.541 222.295 260.626C223.849 258.738 225.423 256.868 227 255C228.004 253.789 229.008 252.578 230.012 251.367C236.25 243.906 242.68 236.428 250 230C250.66 230 251.32 230 252 230C252.227 229.423 252.454 228.845 252.688 228.25C254.344 225.41 256.395 223.985 259 222C259.722 221.257 260.444 220.515 261.188 219.75C263 218 263 218 265 218C265.33 217.01 265.66 216.02 266 215C267.294 213.628 268.623 212.288 270 211Z" fill="#46D6E4"/>
<path d="M364.891 270.77C371.251 274.683 374.116 281.327 375.812 288.375C376.238 296.607 376.442 304.064 374 312C372.02 311.67 370.04 311.34 368 311C368.186 310.381 368.371 309.762 368.562 309.125C369.237 306.958 369.237 306.958 368 305C368.66 305 369.32 305 370 305C369.939 304.394 369.879 303.788 369.816 303.164C369.211 297.109 368.605 291.055 368 285C368.66 285 369.32 285 370 285C369.67 283.02 369.34 281.04 369 279C364.898 277.985 364.898 277.985 361 279C360.34 278.34 359.68 277.68 359 277C359.33 276.01 359.66 275.02 360 274C355.545 274.495 355.545 274.495 351 275C350.67 276.65 350.34 278.3 350 280C348.5 278.625 348.5 278.625 347 277C347 276.34 347 275.68 347 275C347.99 274.67 348.98 274.34 350 274C349.67 273.34 349.34 272.68 349 272C354.241 269.903 359.514 268.581 364.891 270.77Z" fill="#A433ED"/>
<path d="M343 103C341.439 106.831 338.892 109.108 336 112C335.67 112.99 335.34 113.98 335 115C335.33 115.66 335.66 116.32 336 117C335.34 117 334.68 117 334 117C334.144 117.592 334.289 118.183 334.437 118.793C335.408 122.925 336.276 126.723 336 131C335.34 131 334.68 131 334 131C333.34 131.66 332.68 132.32 332 133C331.34 133.66 330.68 134.32 330 135C328.554 139.544 327.692 144.225 328 149C326 148 326 148 325 146C322.69 150.62 320.38 155.24 318 160C316.827 155.309 317.282 154.887 319.562 150.875C325.796 138.959 329.309 126.308 331.359 113.062C332 110 332 110 334 108C334.33 108.33 334.66 108.66 335 109C335.763 108.01 336.526 107.02 337.312 106C339.625 103 339.625 103 343 103Z" fill="#7971F5"/>
<path d="M185 378C187.558 380.292 188.912 382.531 190.375 385.625C192.426 389.901 194.692 393.956 197.18 397.992C198.174 400.425 197.882 401.571 197 404C194.461 404.944 193.391 405.169 190.859 404.074C190.163 403.617 189.467 403.159 188.75 402.688C187.69 402.013 187.69 402.013 186.609 401.324C186.078 400.887 185.547 400.45 185 400C185 399.34 185 398.68 185 398C183.68 397.34 182.36 396.68 181 396C181.66 395.67 182.32 395.34 183 395C182.67 393.02 182.34 391.04 182 389C182.33 389.66 182.66 390.32 183 391C183.99 390.67 184.98 390.34 186 390C185.34 389.01 184.68 388.02 184 387C183.086 384.03 182.757 382.599 183.938 379.688C184.288 379.131 184.639 378.574 185 378Z" fill="#37EBDC"/>
<path d="M266 355C267.65 355 269.3 355 271 355C271.33 355.99 271.66 356.98 272 358C270 360 270 360 268 361C268 361.99 268 362.98 268 364C268.66 364.66 269.32 365.32 270 366C268.68 366 267.36 366 266 366C264.088 367.519 264.088 367.519 263 370C262.833 373.458 262.833 373.458 263 377C262.715 378.676 262.4 380.348 262 382C261.01 381.67 260.02 381.34 259 381C259 381.66 259 382.32 259 383C259.99 383.33 260.98 383.66 262 384C261.01 384.33 260.02 384.66 259 385C258.939 385.771 258.879 386.542 258.816 387.336C258.691 388.84 258.691 388.84 258.563 390.375C258.481 391.373 258.4 392.37 258.316 393.398C258 396 258 396 257 398C256.929 400.374 256.916 402.75 256.938 405.125C256.947 406.406 256.956 407.688 256.965 409.008C256.976 409.995 256.988 410.983 257 412C256.01 412.495 256.01 412.495 255 413C251.207 392.642 257.109 373.198 266 355Z" fill="#46A4EC"/>
<path d="M293 192C294.485 192.495 294.485 192.495 296 193C294.158 197.144 291.571 200.541 288.25 203.625C286.664 205.06 286.664 205.06 287 208C285.928 208.248 284.855 208.495 283.75 208.75C279.898 210.034 278.609 211.031 276 214C275.278 214.474 274.556 214.949 273.812 215.438C271.473 217.454 271.325 218.994 271 222C270.34 221.01 269.68 220.02 269 219C268.34 219.99 267.68 220.98 267 222C264.375 223.188 264.375 223.188 262 224C262.33 223.01 262.66 222.02 263 221C263.66 221 264.32 221 265 221C265 220.34 265 219.68 265 219C265.66 219 266.32 219 267 219C267.289 218.381 267.577 217.762 267.875 217.125C269 215 269 215 271 213C271.433 212.216 271.866 211.433 272.312 210.625C274.211 207.671 276.217 206.12 279 204C279.846 203.154 280.691 202.309 281.562 201.438C283.634 199.366 285.529 197.565 288 196C288.99 196 289.98 196 291 196C291 195.34 291 194.68 291 194C291.66 194 292.32 194 293 194C293 193.34 293 192.68 293 192Z" fill="#47B4FA"/>
<path d="M194 148C195 152 195 152 195 152L194 148ZM188 150C188.66 150.33 189.32 150.66 190 151C189.67 151.99 189.34 152.98 189 154C189.99 154 190.98 154 192 154C191.67 154.99 191.34 155.98 191 157C190.216 157.309 189.433 157.619 188.625 157.938C185.593 159.165 184.902 160.436 183 163C180.875 163.625 180.875 163.625 179 164C178.67 164.66 178.34 165.32 178 166C177.01 166.33 176.02 166.66 175 167C174.175 167.825 173.35 168.65 172.5 169.5C170 172 170 172 167 173C166.783 173.897 166.783 173.897 166.562 174.812C165.243 179.943 160.002 182.444 155.805 185.145C155.209 185.427 154.614 185.709 154 186C153.34 185.67 152.68 185.34 152 185C152.743 184.278 153.485 183.556 154.25 182.812C156.95 180.165 156.95 180.165 158.812 177.625C162.56 173.128 167.107 169.497 171.688 165.875C175.132 163.082 178.143 159.906 181.188 156.688C183 155 183 155 185 155C185.309 154.361 185.619 153.721 185.938 153.062C187 151 187 151 188 150ZM192 152C192.99 152.495 192.99 152.495 194 153C193.01 153.495 193.01 153.495 192 154C192 153.34 192 152.68 192 152Z" fill="#37F6B7"/>
<path d="M131 338C133.475 338.99 133.475 338.99 136 340C136 341.32 136 342.64 136 344C138.892 344.826 140.887 345 144 345C143.67 347.31 143.34 349.62 143 352C144.32 352 145.64 352 147 352C148.333 353.333 149.667 354.667 151 356C150.01 356.33 149.02 356.66 148 357C148.681 357.866 148.681 357.866 149.375 358.75C151 361 151 361 151.938 363.125C153.259 365.456 154.554 366.021 157 367C157 367.99 157 368.98 157 370C157.66 369.01 158.32 368.02 159 367C160 368 160 368 160.062 371.062C160.042 372.032 160.021 373.001 160 374C158.35 373.34 156.7 372.68 155 372C155 371.34 155 370.68 155 370C154.01 369.67 153.02 369.34 152 369C139 354.947 139 354.947 139 350C138.34 350 137.68 350 137 350C135.492 347.883 135.492 347.883 133.875 345.125C133.336 344.22 132.797 343.315 132.242 342.383C131 340 131 340 131 338Z" fill="#4DF09E"/>
<path d="M366 199C366.993 207.51 364.09 213.194 359 220C358.34 220 357.68 220 357 220C356.722 221.021 356.722 221.021 356.438 222.062C354.716 225.581 352.492 227.696 349.656 230.352C347.79 232.1 347.79 232.1 346 235C343.375 235.688 343.375 235.688 341 236C341 235.01 341 234.02 341 233C342.98 232.505 342.98 232.505 345 232C345.083 231.237 345.165 230.474 345.25 229.688C346.153 226.453 347.136 225.649 350 224C350.66 224 351.32 224 352 224C352.309 223.381 352.619 222.762 352.938 222.125C353.625 220.75 354.312 219.375 355 218C354.01 218 353.02 218 352 218C352.33 217.01 352.66 216.02 353 215C356.465 214.505 356.465 214.505 360 214C359.948 212.861 359.948 212.861 359.895 211.699C359.867 210.705 359.84 209.711 359.812 208.688C359.778 207.701 359.743 206.715 359.707 205.699C360 203 360 203 361.387 201.207C364.337 199 364.337 199 366 199Z" fill="#A047EE"/>
<path d="M246 339C246.33 339 246.66 339 247 339C247.392 344.416 245.985 348.345 244.125 353.312C238.693 368.779 238.604 384.749 238 401C235.471 397.207 235.505 393.914 235.313 389.5C235.274 388.69 235.236 387.88 235.196 387.045C234.841 378.24 235.239 370.447 238.305 362.129C239.397 358.784 239.65 355.497 240 352C240.552 348.965 241.226 345.985 242 343C243.32 342.67 244.64 342.34 246 342C246 341.01 246 340.02 246 339Z" fill="#46ADE9"/>
<path d="M196 335C196.66 335.33 197.32 335.66 198 336C197.977 336.652 197.954 337.305 197.93 337.977C197.823 343.163 198.2 347.081 200 352C199.67 352.99 199.34 353.98 199 355C199.313 357.531 199.313 357.531 199.938 360.188C200.229 361.539 200.229 361.539 200.527 362.918C200.683 363.605 200.839 364.292 201 365C201.99 365.33 202.98 365.66 204 366C204 366.66 204 367.32 204 368C204.66 368.33 205.32 368.66 206 369C205.34 369.99 204.68 370.98 204 372C204.66 372.66 205.32 373.32 206 374C206 374.66 206 375.32 206 376C206.33 376.99 206.66 377.98 207 379C208 382 208 382 208 384C208.99 384 209.98 384 211 384C211.33 384.99 211.66 385.98 212 387C211.67 387.66 211.34 388.32 211 389C210.34 389 209.68 389 209 389C208.505 387.515 208.505 387.515 208 386C207.01 385.67 206.02 385.34 205 385C195.436 371.333 193.861 350.965 196 335Z" fill="#46DEED"/>
<path d="M240 202C241.485 202.495 241.485 202.495 243 203C242.548 203.422 242.096 203.844 241.63 204.278C232.258 213.033 223.006 221.868 214 231C212.336 232.669 210.668 234.335 209 236C209.628 233.071 210.586 230.639 212 228C212.66 228 213.32 228 214 228C214 227.34 214 226.68 214 226C214.66 226 215.32 226 216 226C216.083 225.402 216.165 224.804 216.25 224.188C217.209 221.389 218.64 220.696 221 219C221.33 218.01 221.66 217.02 222 216C222.66 216 223.32 216 224 216C224 214.35 224 212.7 224 211C224.66 210.67 225.32 210.34 226 210C226 210.66 226 211.32 226 212C226.619 211.505 227.238 211.01 227.875 210.5C230 209 230 209 232 209C232.33 207.35 232.66 205.7 233 204C235.31 204 237.62 204 240 204C240 203.34 240 202.68 240 202Z" fill="#51DAE2"/>
<path d="M345 236C338.043 243.156 331.098 250.018 323.242 256.195C320.548 258.364 318.316 260.633 316.062 263.25C315.382 263.827 314.701 264.405 314 265C311.75 264.75 311.75 264.75 310 264C310 263.01 310 262.02 310 261C311.32 261.33 312.64 261.66 314 262C314.062 261.402 314.124 260.804 314.188 260.187C315.321 257.136 317.246 256.612 320 255C321.436 253.048 321.436 253.048 322 251C321.67 250.34 321.34 249.68 321 249C321.598 248.897 322.196 248.794 322.812 248.687C325.299 247.906 326.229 246.851 328 245C328.66 245 329.32 245 330 245C330 244.34 330 243.68 330 243C329.34 242.67 328.68 242.34 328 242C328.66 242 329.32 242 330 242C330.33 241.34 330.66 240.68 331 240C331 240.66 331 241.32 331 242C331.99 242 332.98 242 334 242C335.007 240.672 336.006 239.338 337 238C341.409 234.803 341.409 234.803 345 236Z" fill="#7383ED"/>
<path d="M260 180C261.32 180.33 262.64 180.66 264 181C263.381 181.557 262.762 182.114 262.125 182.688C259.893 184.804 259.893 184.804 259.211 187.312C257.616 190.853 255.393 192.743 252.5 195.312C251.52 196.196 250.541 197.079 249.531 197.988C247 200 247 200 245 200C245 200.66 245 201.32 245 202C243.35 202 241.7 202 240 202C240 202.66 240 203.32 240 204C238.02 203.67 236.04 203.34 234 203C233.67 202.01 233.34 201.02 233 200C236.228 197.848 237.284 197.799 241 198C241 196.35 241 194.7 241 193C242.114 193.206 243.227 193.412 244.375 193.625C245.571 193.749 246.768 193.873 248 194C249.344 192.656 250.657 191.28 251.938 189.875C254 188 254 188 257 188C256.67 186.35 256.34 184.7 256 183C257.32 182.67 258.64 182.34 260 182C260 181.34 260 180.68 260 180Z" fill="#4EC6E9"/>
<path d="M155 184C155.66 184.33 156.32 184.66 157 185C156.214 186.316 155.421 187.628 154.625 188.938C154.184 189.668 153.743 190.399 153.289 191.152C152 193 152 193 150 194C150 194.99 150 195.98 150 197C150 197.99 150 198.98 150 200C148.68 199.67 147.36 199.34 146 199C145.01 201.475 145.01 201.475 144 204C143.34 204 142.68 204 142 204C142.33 205.32 142.66 206.64 143 208C142.196 208.412 141.391 208.825 140.562 209.25C137.852 210.718 137.852 210.718 137.312 213.125C137.209 213.744 137.106 214.363 137 215C136.34 215.33 135.68 215.66 135 216C134.67 215.01 134.34 214.02 134 213C134 213.99 134 214.98 134 216C133.34 216 132.68 216 132 216C133.45 212.094 135.274 208.596 137.375 205C137.96 203.989 138.545 202.979 139.148 201.938C140.934 199.105 142.877 196.584 145 194C146.491 191.931 147.97 189.855 149.438 187.77C151.167 185.81 152.548 184.885 155 184Z" fill="#60ED8D"/>
<path d="M354 100C357.438 101.688 357.438 101.688 360 104C361.454 105.238 361.454 105.238 362.938 106.5C365 109 365 109 364.812 111.313C364.544 111.869 364.276 112.426 364 113C362.68 113.33 361.36 113.66 360 114C360 113.34 360 112.68 360 112C359.34 112 358.68 112 358 112C358 111.34 358 110.68 358 110C356.68 109.67 355.36 109.34 354 109C352.875 105.25 352.875 105.25 354 103C345.586 102.662 345.586 102.662 337.957 105.402C336.447 107.188 336.447 107.188 335 110C334.67 109.01 334.34 108.02 334 107C340.594 100.228 344.645 98.995 354 100Z" fill="#9C44ED"/>
<path d="M206 385C206.99 385.33 207.98 385.66 209 386C209 386.99 209 387.98 209 389C212.278 388.248 212.278 388.248 214 385C216.271 388.406 215.988 390.039 215.879 393.996C216.056 396.931 217.208 398.726 219 401C219.66 401.33 220.32 401.66 221 402C221.124 402.928 221.124 402.928 221.25 403.875C221.87 406.368 221.87 406.368 225.062 407.75C226.032 408.162 227.001 408.575 228 409C227.67 410.65 227.34 412.3 227 414C226.67 413.34 226.34 412.68 226 412C225.278 411.959 224.556 411.918 223.812 411.875C217.411 409.883 214.052 401.632 211 396C210.553 395.219 210.105 394.438 209.645 393.633C209.184 392.826 208.724 392.019 208.25 391.188C207.608 390.064 207.608 390.064 206.953 388.918C206 387 206 387 206 385Z" fill="#60CAEA"/>
<path d="M364.926 270.875C369.426 273.804 371.798 277.138 374 282C373 284 373 284 370 286C369.67 283.69 369.34 281.38 369 279C364.898 277.985 364.898 277.985 361 279C360.34 278.34 359.68 277.68 359 277C359.33 276.01 359.66 275.02 360 274C355.545 274.495 355.545 274.495 351 275C350.67 276.65 350.34 278.3 350 280C348.5 278.625 348.5 278.625 347 277C347 276.34 347 275.68 347 275C347.99 274.67 348.98 274.34 350 274C349.67 273.34 349.34 272.68 349 272C354.225 269.91 359.62 268.464 364.926 270.875Z" fill="#9B49DF"/>
<path d="M315 295C317.25 295.25 317.25 295.25 319 296C318.67 297.32 318.34 298.64 318 300C317.34 300 316.68 300 316 300C316 300.66 316 301.32 316 302C315.34 302 314.68 302 314 302C313.67 302.66 313.34 303.32 313 304C312.34 303.67 311.68 303.34 311 303C311 304.32 311 305.64 311 307C308.75 308.5 308.75 308.5 306 310C304.917 311.083 304.917 311.083 303.812 312.188C303.214 312.786 302.616 313.384 302 314C301.34 314 300.68 314 300 314C299.67 314.66 299.34 315.32 299 316C298.34 316 297.68 316 297 316C297 316.66 297 317.32 297 318C295.68 317.67 294.36 317.34 293 317C298.171 311.14 303.304 305.455 309.32 300.441C311.179 298.909 311.179 298.909 313.25 296.5C313.827 296.005 314.405 295.51 315 295Z" fill="#5781E5"/>
<path d="M201 232C203.64 232.33 206.28 232.66 209 233C208.67 234.98 208.34 236.96 208 239C207.01 239.33 206.02 239.66 205 240C204.732 240.681 204.464 241.361 204.188 242.062C202.5 246.238 199.775 249.484 197 253C195.68 252.34 194.36 251.68 193 251C193.625 248.125 193.625 248.125 195 245C198.125 243.625 198.125 243.625 201 243C201.33 240.69 201.66 238.38 202 236C201.01 236.495 201.01 236.495 200 237C200.33 235.35 200.66 233.7 201 232Z" fill="#48E5D6"/>
<path d="M298 83C298.66 83.33 299.32 83.66 300 84C303.36 96.4046 302.041 108.515 300 121C299.34 120.67 298.68 120.34 298 120C298.084 118.949 298.168 117.899 298.254 116.816C298.807 109.387 299.189 102.397 298 95C297.34 95 296.68 95 296 95C295.946 93.5629 295.907 92.1252 295.875 90.6875C295.852 89.887 295.829 89.0865 295.805 88.2617C296 86 296 86 298 83Z" fill="#31A9E7"/>
<path d="M257 413C259.025 414.933 260.421 416.632 262 419C262 418.01 262 417.02 262 416C262.99 416 263.98 416 265 416C265 416.66 265 417.32 265 418C265.99 418 266.98 418 268 418C268.33 417.34 268.66 416.68 269 416C269.99 416.66 270.98 417.32 272 418C271.5 420.875 271.5 420.875 270 424C267.393 425.447 264.98 426.035 262 426C259.47 424.184 258.378 422.756 257 420C256.96 417.667 256.957 415.333 257 413Z" fill="#3D9CFC"/>
<path d="M331 118C331.33 118 331.66 118 332 118C332.265 124.293 331.024 129.631 329.422 135.684C328.261 140.268 327.801 144.269 328 149C326 148 326 148 325 146C322.69 150.62 320.38 155.24 318 160C316.827 155.309 317.282 154.887 319.562 150.875C322.336 145.607 324.436 140.336 326.312 134.688C326.567 133.935 326.821 133.183 327.082 132.408C328.54 127.928 329.39 123.665 330 119C330.33 118.67 330.66 118.34 331 118Z" fill="#6373E0"/>
<path d="M198 307C198.66 307 199.32 307 200 307C200.027 309.583 200.047 312.167 200.062 314.75C200.071 315.48 200.079 316.209 200.088 316.961C200.11 321.922 199.372 325.721 198 330.438C196.538 336.187 196.342 342.098 196 348C195.67 348 195.34 348 195 348C194.381 318.655 194.381 318.655 198 307Z" fill="#58D5CE"/>
<path d="M214 117C215.117 120.719 215.117 120.719 214.062 123.25C213.537 124.116 213.537 124.116 213 125C212.34 125 211.68 125 211 125C211 125.99 211 126.98 211 128C210.34 128 209.68 128 209 128C208.917 128.866 208.835 129.733 208.75 130.625C207.64 135.621 205.575 138.848 201.438 141.875C199 143 199 143 196 143C195.752 143.619 195.505 144.238 195.25 144.875C193.78 147.375 192.586 147.833 190 149C193.117 144.72 196.184 140.688 200 137C203.419 132.939 206.336 128.614 209.25 124.188C209.709 123.495 210.168 122.802 210.641 122.088C211.763 120.393 212.882 118.697 214 117Z" fill="#52EBBD"/>
<path d="M260 312C260.66 312.33 261.32 312.66 262 313C260.796 320.824 256.915 326.857 252 333C251.34 333 250.68 333 250 333C249.34 329.7 248.68 326.4 248 323C252 322 252 322 254 322C254.33 321.34 254.66 320.68 255 320C255.66 320.33 256.32 320.66 257 321C257 319.02 257 317.04 257 315C257.66 315 258.32 315 259 315C259.33 314.01 259.66 313.02 260 312Z" fill="#45B1EE"/>
<path d="M325 145C325.66 146.32 326.32 147.64 327 149C325.918 151.621 325.918 151.621 324.188 154.438C322.002 158.033 320.646 160.841 320 165C319.67 165.99 319.34 166.98 319 168C317.824 168.217 317.824 168.217 316.625 168.438C314.036 168.878 314.036 168.878 312 170C312.415 164.712 313.352 161.883 317 158C317.33 158.33 317.66 158.66 318 159C320.31 154.38 322.62 149.76 325 145Z" fill="#5F8AFA"/>
<path d="M299 313C299.99 313.66 300.98 314.32 302 315C301.196 315.866 300.391 316.733 299.562 317.625C297.031 320.629 296.283 323.032 296 327C295.01 327.33 294.02 327.66 293 328C291.292 329.624 289.624 331.292 288 333C287.34 333.66 286.68 334.32 286 335C285.01 334.67 284.02 334.34 283 334C284.204 331.506 285.454 329.319 287 327C287.66 327 288.32 327 289 327C289.433 325.329 289.433 325.329 289.875 323.625C291 320 291 320 293 318C294.32 318 295.64 318 297 318C297 317.34 297 316.68 297 316C297.66 316 298.32 316 299 316C299 315.01 299 314.02 299 313Z" fill="#3D98FD"/>
<path d="M118 272C118.33 272 118.66 272 119 272C119.049 273.143 119.098 274.287 119.148 275.465C119.223 276.956 119.299 278.447 119.375 279.938C119.421 281.07 119.421 281.07 119.469 282.225C119.573 284.155 119.779 286.079 120 288C120.66 288.33 121.32 288.66 122 289C121.125 294.75 121.125 294.75 120 297C120.66 297 121.32 297 122 297C121.722 297.897 121.722 297.897 121.438 298.812C120.779 301.164 120.779 301.164 122 304C122.66 304 123.32 304 124 304C124 304.99 124 305.98 124 307C123.34 307 122.68 307 122 307C122 307.99 122 308.98 122 310C121.34 310 120.68 310 120 310C116.054 297.336 117.081 285.059 118 272Z" fill="#4AEC69"/>
<path d="M288 56C291 57 291 57 292.875 60.125C294.793 64.2305 296.329 68.472 297.812 72.75C298.159 73.7248 298.159 73.7248 298.513 74.7192C299.655 78.1362 300.406 80.5841 299 84C298.01 83.67 297.02 83.34 296 83C296 80.69 296 78.38 296 76C295.34 76 294.68 76 294 76C293.876 74.3294 293.876 74.3294 293.75 72.625C293.421 68.9425 293.421 68.9425 290.938 67.5625C290.298 67.3769 289.659 67.1912 289 67C289.66 67 290.32 67 291 67C290.505 65.9275 290.01 64.855 289.5 63.75C288.113 60.7458 288 59.5407 288 56Z" fill="#3FBCEB"/>
<path d="M317 378C317.66 378.33 318.32 378.66 319 379C312.183 385.467 305.297 391.491 297.691 397.027C294.945 398.982 294.945 398.982 292.34 401.316C291.568 401.872 290.796 402.428 290 403C289.01 402.67 288.02 402.34 287 402C288.933 397.794 290.667 396.536 294.949 394.949C299.059 393.047 302.712 390.094 306 387C306 386.34 306 385.68 306 385C306.701 384.773 307.402 384.546 308.125 384.312C311.693 382.683 314.065 380.594 317 378Z" fill="#5F72DD"/>
<path d="M278 163C278.99 163.33 279.98 163.66 281 164C279.726 166.038 278.389 168.039 277 170C276.34 170 275.68 170 275 170C274.773 170.722 274.546 171.444 274.312 172.188C272.737 175.564 270.791 177.558 268 180C267.34 180 266.68 180 266 180C265.773 180.763 265.546 181.526 265.312 182.312C263.733 185.547 262.167 186.416 259 188C259.507 183.602 262.083 181.131 265 178C265.66 178 266.32 178 267 178C266.34 176.68 265.68 175.36 265 174C265.603 173.709 266.207 173.417 266.828 173.117C272.124 170.401 275.18 168.272 278 163Z" fill="#4FBCEC"/>
<path d="M351 274C349.68 274.33 348.36 274.66 347 275C347.33 275.99 347.66 276.98 348 278C344.559 280.294 343.277 281 339 281C339.33 281.99 339.66 282.98 340 284C339.01 284 338.02 284 337 284C336.67 284.99 336.34 285.98 336 287C335.67 286.01 335.34 285.02 335 284C333.577 284.99 333.577 284.99 332.125 286C329 288 329 288 327 288C329.177 281.468 338.667 277.583 344.562 274.437C348 273 348 273 351 274Z" fill="#7557DF"/>
<path d="M134 213C134.66 213.33 135.32 213.66 136 214C135.34 215.98 134.68 217.96 134 220C134.66 220.33 135.32 220.66 136 221C136 221.66 136 222.32 136 223C135.237 223.021 134.474 223.041 133.687 223.062C130.687 223.765 130.687 223.765 129.437 227C128.956 228.332 128.477 229.666 128 231C127.283 232.651 126.554 234.297 125.812 235.938C125.468 236.71 125.124 237.482 124.77 238.277C124.516 238.846 124.262 239.414 124 240C122.694 236.384 123.317 234.343 124.687 230.812C125.057 229.853 125.427 228.894 125.809 227.906C127.452 223.897 129.175 219.931 131 216C131.99 216 132.98 216 134 216C134 215.01 134 214.02 134 213Z" fill="#5EE67D"/>
<path d="M196 335C196.66 335.33 197.32 335.66 198 336C197.977 336.652 197.954 337.305 197.93 337.977C197.823 343.163 198.2 347.081 200 352C199.67 352.99 199.34 353.98 199 355C199.317 357.328 199.317 357.328 199.938 359.812C200.769 363.626 201.206 367.077 201 371C196.3 366.3 195.135 356.041 194.917 349.535C195.012 344.663 195.443 339.839 196 335Z" fill="#41DDE0"/>
<path d="M357 217C357.66 217.33 358.32 217.66 359 218C359 218.66 359 219.32 359 220C358.34 220 357.68 220 357 220C356.814 220.681 356.629 221.361 356.438 222.062C354.716 225.581 352.492 227.696 349.656 230.352C347.79 232.1 347.79 232.1 346 235C343.375 235.688 343.375 235.688 341 236C341 235.01 341 234.02 341 233C342.32 232.67 343.64 232.34 345 232C345.083 231.237 345.165 230.474 345.25 229.688C346.153 226.453 347.136 225.649 350 224C350.66 224 351.32 224 352 224C352.268 223.402 352.536 222.804 352.812 222.188C353.985 220.028 355.194 218.642 357 217Z" fill="#8151EF"/>
<path d="M248.188 17.6875C248.786 18.1206 249.384 18.5538 250 19C248 20 248 20 245.305 19.2227C243.607 18.6484 243.607 18.6484 241.875 18.0625C233.809 15.6277 226.358 15.6092 218 16C218 15.34 218 14.68 218 14C227.886 10.4243 239.016 12.832 248.188 17.6875Z" fill="#4AE4D5"/>
<path d="M270 211C270.66 211.33 271.32 211.66 272 212C270.88 215.36 269.628 216.691 267 219C266.34 219 265.68 219 265 219C265 219.66 265 220.32 265 221C263.207 222.551 263.207 222.551 260.812 224.312C254.544 228.869 254.544 228.869 250 235C247.438 235.625 247.438 235.625 245 236C246.616 233.959 248.286 231.959 250 230C250.66 230 251.32 230 252 230C252.227 229.423 252.454 228.845 252.688 228.25C254.344 225.41 256.395 223.985 259 222C260.083 220.886 260.083 220.886 261.188 219.75C263 218 263 218 265 218C265.33 217.01 265.66 216.02 266 215C267.294 213.628 268.623 212.288 270 211Z" fill="#4EBEE9"/>
<path d="M371 314C371.66 314 372.32 314 373 314C373.361 318.435 372.23 321.242 370.25 325.188C369.74 326.233 369.229 327.278 368.703 328.355C366.92 331.124 365.956 331.787 363 333C361.732 335.034 361.732 335.034 361 337C360.67 337 360.34 337 360 337C360 334.36 360 331.72 360 329C360.99 329 361.98 329 363 329C363.99 328.67 364.98 328.34 366 328C365.938 327.072 365.876 326.144 365.812 325.188C366 322 366 322 367.375 320.438C367.911 319.963 368.447 319.489 369 319C370.19 316.401 370.19 316.401 371 314Z" fill="#A74EE6"/>
<path d="M281 204C281.66 204 282.32 204 283 204C283 204.66 283 205.32 283 206C283.66 206.33 284.32 206.66 285 207C283.68 207 282.36 207 281 207C280.732 207.598 280.464 208.196 280.188 208.812C278.554 211.822 276.741 213.52 273.875 215.375C271.496 217.437 271.331 218.934 271 222C270.34 221.01 269.68 220.02 269 219C268.01 220.485 268.01 220.485 267 222C264.375 223.188 264.375 223.188 262 224C262.33 223.01 262.66 222.02 263 221C263.66 221 264.32 221 265 221C265 220.34 265 219.68 265 219C265.66 219 266.32 219 267 219C267.248 218.402 267.495 217.804 267.75 217.188C269.181 214.684 270.569 213.519 273 212C273.66 212 274.32 212 275 212C275.33 211.01 275.66 210.02 276 209C276.99 209 277.98 209 279 209C279.144 208.361 279.289 207.721 279.438 207.062C280 205 280 205 281 204Z" fill="#33B7FC"/>
<path d="M131 338C133.475 338.99 133.475 338.99 136 340C136 341.32 136 342.64 136 344C138.892 344.826 140.887 345 144 345C143.67 347.31 143.34 349.62 143 352C141.68 352 140.36 352 139 352C139 351.34 139 350.68 139 350C138.34 350 137.68 350 137 350C135.492 347.883 135.492 347.883 133.875 345.125C133.336 344.22 132.797 343.315 132.242 342.383C131 340 131 340 131 338Z" fill="#47F38C"/>
<path d="M284 152C285 155 285 155 284.062 157.188C283.712 157.786 283.361 158.384 283 159C282.34 159 281.68 159 281 159C281 160.32 281 161.64 281 163C280.01 163 279.02 163 278 163C277.752 163.577 277.505 164.155 277.25 164.75C275.833 167.3 274.124 169.018 272 171C272 168.69 272 166.38 272 164C272.619 163.959 273.238 163.918 273.875 163.875C274.576 163.586 275.277 163.298 276 163C276.289 162.092 276.577 161.185 276.875 160.25C278.37 155.931 280.371 154.682 284 152Z" fill="#37B6F7"/>
<path d="M192 391C194.981 393.555 196.524 396.383 198 400C197.688 402.375 197.688 402.375 197 404C195.375 404.75 195.375 404.75 193 405C189.75 403.062 189.75 403.062 187 401C188.32 400.67 189.64 400.34 191 400C191.33 400.99 191.66 401.98 192 403C192.99 402.67 193.98 402.34 195 402C195.733 399.985 195.733 399.985 196 398C193.36 398 190.72 398 188 398C188 394 188 394 189 392C189.66 392 190.32 392 191 392C191.33 391.67 191.66 391.34 192 391Z" fill="#44E9E2"/>
<path d="M258 382C259.32 382.66 260.64 383.32 262 384C261.01 384.33 260.02 384.66 259 385C258.939 385.771 258.879 386.542 258.816 387.336C258.733 388.339 258.649 389.342 258.562 390.375C258.481 391.373 258.4 392.37 258.316 393.398C258 396 258 396 257 398C256.929 400.374 256.916 402.75 256.938 405.125C256.947 406.406 256.956 407.688 256.965 409.008C256.976 409.995 256.988 410.983 257 412C256.34 412.33 255.68 412.66 255 413C254.199 408.781 253.865 404.792 253.875 400.5C253.872 399.417 253.87 398.334 253.867 397.219C254.067 392.378 254.58 388.236 257 384C257.33 383.34 257.66 382.68 258 382Z" fill="#3195E9"/>
<path d="M236 369C236.33 369 236.66 369 237 369C237.786 373.149 238.119 377.053 238.098 381.273C238.093 383.004 238.093 383.004 238.088 384.77C238.08 385.959 238.071 387.149 238.062 388.375C238.058 389.588 238.053 390.801 238.049 392.051C238.037 395.034 238.021 398.017 238 401C235.471 397.206 235.507 393.915 235.312 389.5C235.272 388.696 235.231 387.893 235.19 387.065C234.93 380.976 235.135 375.042 236 369Z" fill="#27A5F0"/>
<path d="M329 360C331.375 359.875 331.375 359.875 334 360C336 362 336 362 337 365C336.34 365 335.68 365 335 365C334.67 365.99 334.34 366.98 334 368C332.125 369.75 332.125 369.75 330 371C329.01 370.67 328.02 370.34 327 370C327.351 369.237 327.701 368.474 328.062 367.688C329.324 364.952 329.324 364.952 328 362C328.33 361.34 328.66 360.68 329 360Z" fill="#7C63E1"/>
<path d="M192 253C193.32 253.33 194.64 253.66 196 254C195.651 254.543 195.301 255.085 194.941 255.645C194.486 256.36 194.031 257.075 193.562 257.812C193.11 258.52 192.658 259.228 192.191 259.957C190.859 262.081 190.859 262.081 190 265C188.35 265 186.7 265 185 265C184.67 263.35 184.34 261.7 184 260C189.75 256 189.75 256 192 256C192 255.01 192 254.02 192 253Z" fill="#3CEFCD"/>
<path d="M118 261C118.33 261 118.66 261 119 261C119.203 271.024 118.58 280.998 118 291C116.169 287.871 115.761 285.624 115.805 282.016C115.811 281.081 115.818 280.146 115.824 279.184C115.841 278.216 115.858 277.247 115.875 276.25C115.884 275.266 115.893 274.283 115.902 273.27C115.926 270.846 115.959 268.423 116 266C116.66 266 117.32 266 118 266C118 264.35 118 262.7 118 261Z" fill="#6FE583"/>
<path d="M243 443C244.32 443.33 245.64 443.66 247 444C246.34 444 245.68 444 245 444C245.451 445.22 245.451 445.22 245.91 446.465C249.222 456.446 249.151 464.664 248 475C247.67 475 247.34 475 247 475C246.963 474.068 246.925 473.136 246.887 472.176C246.486 464.413 245.607 457.263 243.621 449.707C243 447 243 447 243 443Z" fill="#60A6EB"/>
<path d="M290 320C290.625 321.812 290.625 321.812 291 324C290.01 325.485 290.01 325.485 289 327C288.34 327 287.68 327 287 327C285.003 330.862 284 333.552 284 338C281.36 338.66 278.72 339.32 276 340C277.467 337.8 278.934 335.6 280.406 333.402C281.359 331.967 282.3 330.524 283.219 329.066C284.097 327.679 285.042 326.334 286 325C286.66 325 287.32 325 288 325C288.66 323.35 289.32 321.7 290 320Z" fill="#4692DD"/>
<path d="M241 193C241.99 193.33 242.98 193.66 244 194C244 197.113 243.826 199.108 243 202C242.01 202 241.02 202 240 202C240 202.66 240 203.32 240 204C237.03 203.505 237.03 203.505 234 203C233.67 202.01 233.34 201.02 233 200C236.228 197.848 237.284 197.799 241 198C241 196.35 241 194.7 241 193Z" fill="#34D3F3"/>
<path d="M240 17C242.273 17.4235 244.544 17.8643 246.812 18.3125C248.077 18.5561 249.342 18.7998 250.645 19.0508C253.808 19.9458 255.066 20.4328 257 23C254.235 24.3823 251.954 24.0953 248.875 24.0625C247.779 24.0535 246.684 24.0445 245.555 24.0352C244.29 24.0178 244.29 24.0178 243 24C242.691 23.2163 242.381 22.4325 242.062 21.625C241.071 19.0767 241.071 19.0767 240 17Z" fill="#3AE9E0"/>
<path d="M258 23C264.769 26.4462 264.769 26.4462 265.938 29.25C265.958 29.8275 265.979 30.405 266 31C263.237 31.5973 260.84 32 258 32C256.539 29.3526 256 28.1055 256 25C256.66 25 257.32 25 258 25C258 24.34 258 23.68 258 23Z" fill="#45DEE1"/>
<path d="M345 236C340.71 240.29 336.42 244.58 332 249C331.01 248.67 330.02 248.34 329 248C329.99 247.67 330.98 247.34 332 247C332.144 246.423 332.289 245.845 332.438 245.25C333.477 241.093 336.183 238.598 339.562 236.125C342 235 342 235 345 236Z" fill="#907DEB"/>
<path d="M249 484C250.376 485.29 251.708 486.627 253 488C253 488.66 253 489.32 253 490C254.728 490.197 256.458 490.382 258.188 490.562C259.15 490.667 260.113 490.771 261.105 490.879C263.942 490.998 266.254 490.678 269 490C269.33 490.66 269.66 491.32 270 492C265.425 494.635 261.162 494.65 256 494C252.438 492.375 252.438 492.375 250 490C249.125 486.75 249.125 486.75 249 484Z" fill="#5792E4"/>
<path d="M257 444C261.468 445.489 262.719 448.736 265.125 452.625C265.58 453.325 266.035 454.025 266.504 454.746C269.314 459.24 270.652 462.701 271 468C267.784 463.811 265.067 459.375 262.312 454.875C261.801 454.051 261.29 453.228 260.764 452.379C260.281 451.591 259.798 450.804 259.301 449.992C258.859 449.274 258.417 448.556 257.962 447.816C257 446 257 446 257 444Z" fill="#4A8BDD"/>
<path d="M157 373C158.32 373.33 159.64 373.66 161 374C161 374.66 161 375.32 161 376C161.99 376.33 162.98 376.66 164 377C164 377.66 164 378.32 164 379C164.99 379 165.98 379 167 379C167 379.99 167 380.98 167 382C168.32 382 169.64 382 171 382C173.125 384.938 173.125 384.938 175 388C175.66 388.33 176.32 388.66 177 389C176.67 389.99 176.34 390.98 176 392C173.959 390.384 171.959 388.714 170 387C170 386.34 170 385.68 170 385C169.361 384.732 168.721 384.464 168.062 384.188C166 383 166 383 165 380C164.34 379.67 163.68 379.34 163 379C162.34 378.67 161.68 378.34 161 378C160.67 377.01 160.34 376.02 160 375C159.01 374.67 158.02 374.34 157 374C157 373.67 157 373.34 157 373Z" fill="#66EAC8"/>
<path d="M201 232C203.64 232.33 206.28 232.66 209 233C208.67 234.98 208.34 236.96 208 239C207.67 238.34 207.34 237.68 207 237C206.34 237 205.68 237 205 237C204.34 238.98 203.68 240.96 203 243C202.34 243 201.68 243 201 243C201.33 240.69 201.66 238.38 202 236C201.01 236.495 201.01 236.495 200 237C200.33 235.35 200.66 233.7 201 232Z" fill="#36E9DC"/>
<path d="M185 378C188.266 380.653 189.265 383.804 190.688 387.688C191.124 388.867 191.561 390.046 192.012 391.262C192.338 392.165 192.664 393.069 193 394C192.34 394 191.68 394 191 394C190.691 392.855 190.691 392.855 190.375 391.688C188.579 388.178 186.569 387.474 183 386C183.875 380.25 183.875 380.25 185 378Z" fill="#36E6D6"/>
<path d="M300 96C300.66 96 301.32 96 302 96C302.313 104.514 301.373 112.603 300 121C299.34 120.67 298.68 120.34 298 120C298.66 112.08 299.32 104.16 300 96Z" fill="#399FE6"/>
<path d="M347.188 99.875C348.089 99.893 348.99 99.9111 349.918 99.9297C350.605 99.9529 351.292 99.9761 352 100C352 100.66 352 101.32 352 102C345.479 104.046 345.479 104.046 342.375 103.75C339.428 104.06 339.039 104.781 337.188 107C336.466 107.99 335.744 108.98 335 110C334.67 109.01 334.34 108.02 334 107C341.092 99.7167 341.092 99.7167 347.188 99.875Z" fill="#704BD9"/>
<path d="M219 401C219.66 401.33 220.32 401.66 221 402C221.083 402.619 221.165 403.238 221.25 403.875C221.87 406.368 221.87 406.368 225.063 407.75C226.517 408.369 226.517 408.369 228 409C227.67 410.65 227.34 412.3 227 414C226.67 413.34 226.34 412.68 226 412C224.824 411.845 224.824 411.845 223.625 411.688C221 411 221 411 219.125 408.75C217.842 405.614 218 404.183 219 401Z" fill="#42BDF5"/>
<path d="M363 270C363 270.66 363 271.32 363 272C359.04 272.99 355.08 273.98 351 275C350.67 276.65 350.34 278.3 350 280C348.5 278.625 348.5 278.625 347 277C347 276.34 347 275.68 347 275C347.99 274.67 348.98 274.34 350 274C349.67 273.34 349.34 272.68 349 272C353.927 270.029 357.78 269.82 363 270Z" fill="#9453DE"/>
<path d="M372 131C372.33 131.66 372.66 132.32 373 133C373.66 133 374.32 133 375 133C377.209 138.978 376.932 143.74 376 150C375.67 150 375.34 150 375 150C375 148.02 375 146.04 375 144C374.34 143.67 373.68 143.34 373 143C373 139 373 139 374 136C372.68 135.67 371.36 135.34 370 135C370.66 133.68 371.32 132.36 372 131Z" fill="#A33CEA"/>
<path d="M254 228C255.65 228.33 257.3 228.66 259 229C258.01 229.33 257.02 229.66 256 230C255.67 232.31 255.34 234.62 255 237C254.34 236.67 253.68 236.34 253 236C253 235.34 253 234.68 253 234C252.01 234.33 251.02 234.66 250 235C251.204 232.506 252.454 230.319 254 228ZM247 235C247.99 235.33 248.98 235.66 250 236C248.048 237.952 246.468 238.848 244 240C244.375 238.062 244.375 238.062 245 236C245.66 235.67 246.32 235.34 247 235Z" fill="#30C7F5"/>
<path d="M155 184C155.66 184.33 156.32 184.66 157 185C156.214 186.316 155.421 187.628 154.625 188.938C153.964 190.034 153.964 190.034 153.289 191.152C152 193 152 193 150 194C150 194.99 150 195.98 150 197C150 197.99 150 198.98 150 200C148.35 199.67 146.7 199.34 145 199C146.815 192.495 150.212 188.617 155 184Z" fill="#3CF28C"/>
<path d="M199 142C199.33 143.32 199.66 144.64 200 146C199.196 146.619 198.391 147.238 197.562 147.875C194.961 149.742 194.961 149.742 194 152C193.34 152 192.68 152 192 152C192 152.66 192 153.32 192 154C191.01 154 190.02 154 189 154C189.301 150.387 189.709 149.255 192.5 146.812C193.325 146.214 194.15 145.616 195 145C195.33 144.34 195.66 143.68 196 143C196.99 142.67 197.98 142.34 199 142Z" fill="#33F3B6"/>
<path d="M257 413C260.442 415.66 260.995 418.903 262 423C264.64 422.67 267.28 422.34 270 422C270 422.66 270 423.32 270 424C264.76 425.747 264.76 425.747 262 426C259.47 424.184 258.378 422.756 257 420C256.96 417.667 256.957 415.333 257 413Z" fill="#3D95EB"/>
<path d="M215 270C216.401 274.202 215.766 277.333 213.938 281.312C213.473 282.148 213.473 282.148 213 283C212.01 283 211.02 283 210 283C210 283.66 210 284.32 210 285C209.01 284.67 208.02 284.34 207 284C207.41 283.325 207.82 282.649 208.242 281.953C208.781 281.061 209.32 280.169 209.875 279.25C210.409 278.368 210.942 277.487 211.492 276.578C212.756 274.417 213.915 272.254 215 270Z" fill="#50DFDC"/>
<path d="M165 172C165.33 172.66 165.66 173.32 166 174C163.432 179.917 160.038 183.491 154 186C153.34 185.67 152.68 185.34 152 185C152.743 184.278 153.485 183.556 154.25 182.812C156.984 180.118 156.984 180.118 159.062 177.375C160.886 175.14 162.625 173.612 165 172Z" fill="#63EBA9"/>
<path d="M292 143C292 146.307 291.428 147.379 289.812 150.188C289.361 150.974 288.91 151.76 288.445 152.57C286.355 156.084 284.205 159.557 282 163C281.67 161.68 281.34 160.36 281 159C281.66 159 282.32 159 283 159C283.124 158.464 283.248 157.928 283.375 157.375C284.122 154.536 285.053 151.778 286 149C286.66 149 287.32 149 288 149C288.433 147.793 288.433 147.793 288.875 146.562C290 144 290 144 292 143Z" fill="#4DB1EA"/>
<path d="M303 306C303 306.99 303 307.98 303 309C303.66 309.66 304.32 310.32 305 311C303.625 312.5 303.625 312.5 302 314C301.34 314 300.68 314 300 314C299.67 314.66 299.34 315.32 299 316C298.34 316 297.68 316 297 316C297 316.66 297 317.32 297 318C295.68 317.67 294.36 317.34 293 317C296.3 313.37 299.6 309.74 303 306Z" fill="#6198E9"/>
<path d="M120 246C120.66 246 121.32 246 122 246C121.94 248.773 121.853 251.541 121.75 254.312C121.736 255.098 121.722 255.884 121.707 256.693C121.458 262.543 121.458 262.543 118.953 265.043C118.309 265.359 117.664 265.675 117 266C117.486 259.152 118.36 252.67 120 246Z" fill="#52E96A"/>
<path d="M309 170C309.66 170.33 310.32 170.66 311 171C310.812 173.312 310.812 173.312 310 176C308.362 177.046 306.69 178.04 305 179C303.184 180.909 301.621 182.916 300 185C299.34 184.67 298.68 184.34 298 184C299.645 181.853 301.291 179.708 302.938 177.562C303.406 176.951 303.875 176.339 304.357 175.709C307.887 171.113 307.887 171.113 309 170Z" fill="#4B90E5"/>
<path d="M293 277C293.99 277.33 294.98 277.66 296 278C294.655 282.403 292.839 284.472 289 287C288.01 287 287.02 287 286 287C286 286.34 286 285.68 286 285C286.99 284.34 287.98 283.68 289 283C289.688 281.342 290.356 279.675 291 278C291.66 277.67 292.32 277.34 293 277Z" fill="#4395EB"/>
<path d="M271 469C271.99 469.33 272.98 469.66 274 470C275.005 473.015 275.103 475.042 275.062 478.188C275.053 479.089 275.044 479.99 275.035 480.918C275.024 481.605 275.012 482.292 275 483C274.01 483.33 273.02 483.66 272 484C271.67 479.05 271.34 474.1 271 469Z" fill="#457ADE"/>
<path d="M204 376C204.99 376.33 205.98 376.66 207 377C207.33 379.31 207.66 381.62 208 384C208.99 384 209.98 384 211 384C211.33 384.99 211.66 385.98 212 387C211.67 387.66 211.34 388.32 211 389C210.34 389 209.68 389 209 389C208.67 388.01 208.34 387.02 208 386C207.01 385.67 206.02 385.34 205 385C204.234 383.188 204.234 383.188 203.75 381C203.58 380.278 203.41 379.556 203.234 378.812C203.157 378.214 203.08 377.616 203 377C203.33 376.67 203.66 376.34 204 376Z" fill="#34D4EE"/>
<path d="M267 355C268.65 355.33 270.3 355.66 272 356C270.25 359.875 270.25 359.875 268 361C268 361.99 268 362.98 268 364C268.66 364.66 269.32 365.32 270 366C268 366 266 366 264 366C264.99 362.37 265.98 358.74 267 355Z" fill="#369FF7"/>
<path d="M201 300C201.33 300.66 201.66 301.32 202 302C203.32 301.67 204.64 301.34 206 301C205.625 302.938 205.625 302.938 205 305C204.01 305.495 204.01 305.495 203 306C202.67 307.155 202.34 308.31 202 309.5C201.505 311.232 201.505 311.232 201 313C200.01 313.495 200.01 313.495 199 314C198.946 312.417 198.907 310.834 198.875 309.25C198.852 308.368 198.829 307.487 198.805 306.578C199.009 303.886 199.634 302.301 201 300Z" fill="#34E6DE"/>
<path d="M118 272C118.33 272 118.66 272 119 272C119.049 273.143 119.098 274.287 119.148 275.465C119.223 276.956 119.299 278.447 119.375 279.938C119.406 280.692 119.437 281.447 119.469 282.225C119.573 284.155 119.779 286.079 120 288C120.66 288.33 121.32 288.66 122 289C121.25 294.75 121.25 294.75 119 297C118.058 291.473 117.879 286.162 117.937 280.562C117.942 279.736 117.947 278.909 117.951 278.057C117.963 276.038 117.981 274.019 118 272Z" fill="#4CF968"/>
<path d="M223 410C223.33 410.66 223.66 411.32 224 412C224.66 412 225.32 412 226 412C227.438 413.828 227.438 413.828 229 416.25C229.516 417.039 230.031 417.828 230.562 418.641C233.184 422.944 233.184 422.944 234 425C233.67 425.99 233.34 426.98 233 428C231.325 425.568 229.66 423.13 228 420.688C227.523 419.997 227.046 419.307 226.555 418.596C225.878 417.595 225.878 417.595 225.188 416.574C224.559 415.655 224.559 415.655 223.918 414.718C223 413 223 413 223 410Z" fill="#55AEE5"/>
<path d="M282 405C282.738 406.734 282.738 406.734 283 409C281.418 411.141 281.418 411.141 279.188 413.25C278.459 413.956 277.731 414.663 276.98 415.391C275 417 275 417 273 417C273 414 273 414 274.938 411.938C275.618 411.298 276.299 410.659 277 410C277.33 409.34 277.66 408.68 278 408C278.66 408 279.32 408 280 408C280 407.34 280 406.68 280 406C280.66 405.67 281.32 405.34 282 405Z" fill="#3E83E7"/>
<path d="M325 145C326.18 146.641 326.18 146.641 327 149C325.883 151.797 325.883 151.797 324.125 154.75C323.263 156.227 323.263 156.227 322.383 157.734C321.926 158.482 321.47 159.23 321 160C320.67 160 320.34 160 320 160C320.432 153.848 321.654 150.181 325 145Z" fill="#6183FD"/>
<path d="M217 41C218.32 41.33 219.64 41.66 221 42C221.66 41.67 222.32 41.34 223 41C223.996 44.0972 223.899 45.9027 223 49C223 49.99 223 50.98 223 52C222.01 52.33 221.02 52.66 220 53C219.01 49.04 218.02 45.08 217 41Z" fill="#2EEFCF"/>
<path d="M307 386C303.827 389.536 301.833 391.586 297 392C296.67 390.35 296.34 388.7 296 387C296.619 386.856 297.238 386.711 297.875 386.563C303.306 385.125 303.306 385.125 307 386Z" fill="#577FFD"/>
<path d="M132 327C132.99 327.66 133.98 328.32 135 329C134.67 330.32 134.34 331.64 134 333C134.66 333.33 135.32 333.66 136 334C135.67 335.98 135.34 337.96 135 340C133.062 338.938 133.062 338.938 131 337C130.25 333.312 130.25 333.312 130 330C130.66 330 131.32 330 132 330C132 329.01 132 328.02 132 327Z" fill="#4BFA82"/>
<path d="M244 236C245 239 245 239 244.062 241.188C243.712 241.786 243.361 242.384 243 243C242.34 243 241.68 243 241 243C241 243.66 241 244.32 241 245C239.35 245.33 237.7 245.66 236 246C236 246.66 236 247.32 236 248C235.34 247.67 234.68 247.34 234 247C235.103 245.728 236.207 244.457 237.312 243.188C237.927 242.48 238.542 241.772 239.176 241.043C240.733 239.299 242.327 237.632 244 236Z" fill="#52D3E7"/>
<path d="M213 385C214.5 386.125 214.5 386.125 216 388C216.253 391.095 216.399 393.201 215 396C214.34 396 213.68 396 213 396C211 393 211 393 211.313 390.5C211.821 388.651 212.394 386.819 213 385Z" fill="#32D0F8"/>
<path d="M174 167C173.312 168.875 173.312 168.875 172 171C170.732 171.495 170.732 171.495 169.438 172C168.633 172.33 167.829 172.66 167 173C166.248 174.926 166.248 174.926 166 177C165.01 178.485 165.01 178.485 164 180C163.34 180 162.68 180 162 180C162.667 178.667 163.333 177.333 164 176C164.433 174.989 164.866 173.979 165.312 172.938C167.35 169.39 169.715 167 174 167Z" fill="#4CF1AE"/>
<path d="M182 156C182.33 156.99 182.66 157.98 183 159C182.361 159.598 181.721 160.196 181.062 160.812C178.797 162.908 178.797 162.908 178 166C176.152 166.73 176.152 166.73 173.938 167.188C173.204 167.346 172.471 167.505 171.715 167.668C171.149 167.778 170.583 167.887 170 168C173.678 163.474 177.411 159.606 182 156Z" fill="#5BEBB9"/>
<path d="M339 280C341 281 341 281 341 281L339 280ZM339 281C339.33 281.99 339.66 282.98 340 284C339.01 284 338.02 284 337 284C336.67 284.99 336.34 285.98 336 287C335.67 286.01 335.34 285.02 335 284C333.577 284.99 333.577 284.99 332.125 286C329 288 329 288 327 288C328.934 282.199 333.396 281 339 281Z" fill="#726AE8"/>
<path d="M321 256C320.75 257.875 320.75 257.875 320 260C318.062 261.062 318.062 261.062 316 262C315.01 263.485 315.01 263.485 314 265C312.68 264.67 311.36 264.34 310 264C310 263.01 310 262.02 310 261C311.32 261.33 312.64 261.66 314 262C314.083 261.381 314.165 260.762 314.25 260.125C315 258 315 258 316.938 256.75C319 256 319 256 321 256Z" fill="#6E92EE"/>
<path d="M299 394C299 394.66 299 395.32 299 396C297.137 397.762 297.137 397.762 294.688 399.688C293.487 400.652 293.487 400.652 292.262 401.637C291.515 402.087 290.769 402.536 290 403C289.01 402.67 288.02 402.34 287 402C288.719 398.258 289.814 397.094 293.562 395.188C297 394 297 394 299 394Z" fill="#4B74DB"/>
<path d="M299 313C299.99 313.66 300.98 314.32 302 315C300.931 316.345 299.844 317.676 298.75 319C298.147 319.743 297.543 320.485 296.922 321.25C295 323 295 323 291 323C291.33 321.68 291.66 320.36 292 319C293.65 318.67 295.3 318.34 297 318C297 317.34 297 316.68 297 316C297.66 316 298.32 316 299 316C299 315.01 299 314.02 299 313Z" fill="#408DF3"/>
<path d="M357 217C357.66 217.33 358.32 217.66 359 218C359 218.66 359 219.32 359 220C358.34 220 357.68 220 357 220C356.773 220.743 356.546 221.485 356.312 222.25C354.756 225.511 352.915 226.929 350 229C350 227.35 350 225.7 350 224C350.66 224 351.32 224 352 224C352.268 223.402 352.536 222.804 352.812 222.188C353.985 220.028 355.194 218.642 357 217Z" fill="#9761E2"/>
<path d="M283 201C283.66 201.33 284.32 201.66 285 202C283.793 202.897 283.793 202.897 282.562 203.812C279.777 205.809 279.777 205.809 279 209C278.01 209.33 277.02 209.66 276 210C274.333 211.5 274.333 211.5 273 213C272.34 212.67 271.68 212.34 271 212C274.613 207.44 277.988 203.983 283 201Z" fill="#3EA7E2"/>
<path d="M210 21C212 23 212 23 212.188 26.375C212.044 29.1473 211.837 31.3841 211 34C211.66 34 212.32 34 213 34C213.33 35.98 213.66 37.96 214 40C210.509 37.3024 209.819 34.2305 209 30C209.126 26.9597 209.497 23.9995 210 21Z" fill="#52EBD5"/>
<path d="M240 409C240.66 409 241.32 409 242 409C243.998 413.121 244.178 416.452 244 421C242.68 420.34 241.36 419.68 240 419C240 415.7 240 412.4 240 409Z" fill="#3BA0EE"/>
<path d="M175 347C177.207 350.31 177.783 352.82 178.625 356.688C178.885 357.867 179.146 359.046 179.414 360.262C179.607 361.165 179.801 362.069 180 363C179.01 363.33 178.02 363.66 177 364C174.425 358.851 174.901 352.627 175 347Z" fill="#54E4C5"/>
<path d="M371 192C372.222 195.665 371.628 196.632 370.187 200.125C369.83 201.014 369.473 201.904 369.105 202.82C368 205 368 205 366 206C365.707 198.379 365.707 198.379 368 195C369.625 193.25 369.625 193.25 371 192Z" fill="#A961E8"/>
<path d="M293 192C293.99 192.33 294.98 192.66 296 193C294.557 196.366 292.667 198.51 290 201C290 200.34 290 199.68 290 199C288.35 199.33 286.7 199.66 285 200C286.312 198 286.312 198 288 196C288.99 196 289.98 196 291 196C291 195.34 291 194.68 291 194C291.66 194 292.32 194 293 194C293 193.34 293 192.68 293 192Z" fill="#39A2F5"/>
<path d="M214 117C215.117 120.719 215.117 120.719 214.062 123.25C213.712 123.827 213.361 124.405 213 125C212.34 125 211.68 125 211 125C211 125.99 211 126.98 211 128C209.125 130.188 209.125 130.188 207 132C206.34 132 205.68 132 205 132C206.617 128.571 208.576 125.437 210.625 122.25C211.257 121.265 211.888 120.28 212.539 119.266C213.021 118.518 213.503 117.77 214 117Z" fill="#63E8C5"/>
<path d="M266 355C267.187 358.561 266.721 359.989 265.75 363.562C265.371 365.018 265.371 365.018 264.984 366.504C264 369 264 369 261 371C259.608 366.824 261.046 365.21 262.938 361.312C263.503 360.133 264.069 358.954 264.652 357.738C265.097 356.835 265.542 355.931 266 355Z" fill="#5CABE9"/>
<path d="M297 112C297.66 112 298.32 112 299 112C298.979 113.237 298.959 114.475 298.938 115.75C298.925 118.131 298.985 119.946 299.625 122.25C300.149 124.695 299.263 125.92 298 128C298 125.69 298 123.38 298 121C297.34 121 296.68 121 296 121C295.902 114.848 295.902 114.848 296 113C296.33 112.67 296.66 112.34 297 112Z" fill="#4AB6F4"/>
<path d="M265 28C268.407 30.2458 271.765 32.5114 275 35C274.67 35.66 274.34 36.32 274 37C269.25 36.125 269.25 36.125 267 35C266.269 32.6859 265.599 30.3517 265 28Z" fill="#54D8E5"/>
<path d="M154 365C154.99 365.66 155.98 366.32 157 367C157 367.99 157 368.98 157 370C157.66 369.01 158.32 368.02 159 367C160 368 160 368 160.062 371.062C160.042 372.032 160.021 373.001 160 374C157.525 373.01 157.525 373.01 155 372C155 371.34 155 370.68 155 370C154.01 369.67 153.02 369.34 152 369C152.99 368.67 153.98 368.34 155 368C154.67 367.01 154.34 366.02 154 365Z" fill="#51F1AF"/>
<path d="M365 329C366 332 366 332 364.312 335.562C362.602 338.388 361.244 339.957 358 341C358 340.34 358 339.68 358 339C357.34 338.67 356.68 338.34 356 338C356.743 337.814 357.485 337.629 358.25 337.438C362.165 335.391 363.044 332.912 365 329Z" fill="#9745E0"/>
<path d="M198 315C198.66 315.33 199.32 315.66 200 316C200.074 319.868 200.079 323.283 199 327C198.654 328.998 198.319 330.998 198 333C197.67 333 197.34 333 197 333C196.973 330.75 196.954 328.5 196.938 326.25C196.926 324.997 196.914 323.744 196.902 322.453C196.98 319.715 197.172 317.581 198 315Z" fill="#2EE8DE"/>
<path d="M321 290C321.66 290.33 322.32 290.66 323 291C322.711 291.495 322.423 291.99 322.125 292.5C320.587 295.918 319.852 299.351 319 303C318.34 302.67 317.68 302.34 317 302C317 295 317 295 318 293C318.66 293 319.32 293 320 293C320.33 292.01 320.66 291.02 321 290Z" fill="#728BF4"/>
<path d="M372 283C372.66 283.33 373.32 283.66 374 284C373.67 286.31 373.34 288.62 373 291C371.68 291 370.36 291 369 291C368.67 289.02 368.34 287.04 368 285C369.875 283.938 369.875 283.938 372 283Z" fill="#A531F5"/>
<path d="M330 240C330.33 240.66 330.66 241.32 331 242C331.66 242 332.32 242 333 242C332.625 244.438 332.625 244.438 332 247C331.01 247.495 331.01 247.495 330 248C330 248.66 330 249.32 330 250C328.35 249.67 326.7 249.34 325 249C326.375 247 326.375 247 328 245C328.66 245 329.32 245 330 245C330 244.34 330 243.68 330 243C329.34 242.67 328.68 242.34 328 242C328.66 242 329.32 242 330 242C330 241.34 330 240.68 330 240Z" fill="#6E71F7"/>
<path d="M290 136C290.99 136.33 291.98 136.66 293 137C293 138.98 293 140.96 293 143C292.01 143.33 291.02 143.66 290 144C289.67 144.66 289.34 145.32 289 146C288.403 143.237 288 140.84 288 138C288.66 137.34 289.32 136.68 290 136Z" fill="#34ADF4"/>
<path d="M238 362C238.33 362 238.66 362 239 362C239.904 368.326 239.904 373.674 239 380C238.67 380 238.34 380 238 380C236.501 374.002 236.501 367.998 238 362Z" fill="#56B8ED"/>
<path d="M229 255C229.99 255.33 230.98 255.66 232 256C231.651 259.255 230.979 260.019 228.438 262.25C227.231 263.116 227.231 263.116 226 264C225.34 263.67 224.68 263.34 224 263C225.65 260.36 227.3 257.72 229 255Z" fill="#31DCF1"/>
<path d="M230 209C230.66 209.33 231.32 209.66 232 210C229.125 213.981 226.179 216.436 222 219C222 218.01 222 217.02 222 216C222.66 216 223.32 216 224 216C224 214.35 224 212.7 224 211C224.66 210.67 225.32 210.34 226 210C226 210.66 226 211.32 226 212C227.32 211.01 228.64 210.02 230 209Z" fill="#30DDEE"/>
<path d="M343 103C341.444 106.819 339.044 109.26 336 112C335.34 112 334.68 112 334 112C335.605 107.186 337.479 103 343 103Z" fill="#8165FD"/>
<path d="M294.625 321.875C295.409 321.916 296.192 321.957 297 322C296.67 323.65 296.34 325.3 296 327C294 327.667 292 328.333 290 329C289.875 326.625 289.875 326.625 290 324C292 322 292 322 294.625 321.875Z" fill="#4A96FB"/>
<path d="M359 272C362.688 272.498 364.605 273.101 367 276C364.525 277.485 364.525 277.485 362 279C361.01 278.34 360.02 277.68 359 277C359 275.333 359 273.667 359 272Z" fill="#A03BF9"/>
<path d="M296 74C296.66 74 297.32 74 298 74C300.429 80.2857 300.429 80.2857 299 84C298.01 83.67 297.02 83.34 296 83C296 80.03 296 77.06 296 74Z" fill="#53BEEC"/>
<path d="M235 429C236.32 429.33 237.64 429.66 239 430C239.66 432.31 240.32 434.62 241 437C240.01 437.495 240.01 437.495 239 438C235 432.375 235 432.375 235 429Z" fill="#56AAEA"/>
<path d="M196 398C196.66 398.66 197.32 399.32 198 400C197.625 402.125 197.625 402.125 197 404C195.375 404.75 195.375 404.75 193 405C189.75 403.062 189.75 403.062 187 401C188.32 400.67 189.64 400.34 191 400C191.33 400.99 191.66 401.98 192 403C192.99 402.67 193.98 402.34 195 402C195.733 399.985 195.733 399.985 196 398Z" fill="#68E0DC"/>
<path d="M131 338C133.475 338.99 133.475 338.99 136 340C136 341.32 136 342.64 136 344C136.66 344 137.32 344 138 344C138.33 345.32 138.66 346.64 139 348C137.25 347.938 137.25 347.938 135 347C132.992 344.3 131 341.449 131 338Z" fill="#5CE892"/>
<path d="M134 213C134.66 213.33 135.32 213.66 136 214C135.34 215.98 134.68 217.96 134 220C134.66 220.33 135.32 220.66 136 221C136 221.66 136 222.32 136 223C134.35 223 132.7 223 131 223C131.33 220.69 131.66 218.38 132 216C132.66 216 133.32 216 134 216C134 215.01 134 214.02 134 213Z" fill="#48F672"/>
<path d="M315 161C315.66 161.33 316.32 161.66 317 162C317.625 164.562 317.625 164.562 318 167C316.02 167.99 314.04 168.98 312 170C312.75 163.25 312.75 163.25 315 161Z" fill="#5285EA"/>
<path d="M304 267C304.99 267.33 305.98 267.66 307 268C305.715 270.867 304.429 272.976 302 275C301.34 275 300.68 275 300 275C300 275.66 300 276.32 300 277C299.01 276.67 298.02 276.34 297 276C300.613 271.312 300.613 271.312 302 270C302.99 270 303.98 270 305 270C304.67 269.01 304.34 268.02 304 267Z" fill="#4183DF"/>
<path d="M294 188C294.33 189.32 294.66 190.64 295 192C294.34 192 293.68 192 293 192C293 192.66 293 193.32 293 194C292.34 194 291.68 194 291 194C291 194.66 291 195.32 291 196C289.02 196.99 287.04 197.98 285 199C286.559 195.173 289.032 192.82 292 190C292.66 189.34 293.32 188.68 294 188Z" fill="#6BB3EB"/>
<path d="M260 180C261.32 180.33 262.64 180.66 264 181C263.361 181.598 262.721 182.196 262.062 182.812C259.797 184.908 259.797 184.908 259 188C258.34 188 257.68 188 257 188C256.67 186.35 256.34 184.7 256 183C257.32 182.67 258.64 182.34 260 182C260 181.34 260 180.68 260 180Z" fill="#32C2F9"/>
<path d="M329 360C330.65 360 332.3 360 334 360C334.33 361.32 334.66 362.64 335 364C331.99 364.934 331.133 365.044 328 364C328.33 362.68 328.66 361.36 329 360Z" fill="#8062F9"/>
<path d="M355 337C355.33 337.66 355.66 338.32 356 339C356.66 339 357.32 339 358 339C358.33 340.32 358.66 341.64 359 343C358.01 343.66 357.02 344.32 356 345C355.01 344.34 354.02 343.68 353 343C353.66 341.02 354.32 339.04 355 337Z" fill="#A751F4"/>
<path d="M118 290C118.33 290 118.66 290 119 290C119 292.31 119 294.62 119 297C119.99 297 120.98 297 122 297C121.34 298.32 120.68 299.64 120 301C119.34 301 118.68 301 118 301C117.806 299.355 117.62 297.709 117.438 296.062C117.333 295.146 117.229 294.229 117.121 293.285C117.081 292.531 117.041 291.777 117 291C117.33 290.67 117.66 290.34 118 290Z" fill="#55E871"/>
<path d="M359 214C358.688 215.875 358.688 215.875 358 218C357.01 218.66 356.02 219.32 355 220C355 219.34 355 218.68 355 218C354.01 218 353.02 218 352 218C352.33 217.01 352.66 216.02 353 215C355 214 355 214 359 214Z" fill="#9747F8"/>
<path d="M278 163C278.99 163.33 279.98 163.66 281 164C279.726 166.038 278.389 168.039 277 170C276.34 170 275.68 170 275 170C274.34 171.32 273.68 172.64 273 174C273.531 169.485 275.366 166.653 278 163Z" fill="#58B8E7"/>
<path d="M339 355C339.66 355.99 340.32 356.98 341 358C340.34 358.66 339.68 359.32 339 360C339 360.99 339 361.98 339 363C338.01 363.495 338.01 363.495 337 364C336.67 361.69 336.34 359.38 336 357C336.99 356.34 337.98 355.68 339 355Z" fill="#8D5DF6"/>
<path d="M168 297C168.99 297.99 169.98 298.98 171 300C171.66 299.34 172.32 298.68 173 298C172.414 304.152 172.414 304.152 172 306C171.01 306.495 171.01 306.495 170 307C169.67 305.68 169.34 304.36 169 303C168.67 303 168.34 303 168 303C168 301.02 168 299.04 168 297Z" fill="#3CF8BD"/>
<path d="M374 285C375.312 288.937 374.243 291.125 373 295C371.68 294.67 370.36 294.34 369 294C370.204 291.506 371.454 289.319 373 287C373.33 286.34 373.66 285.68 374 285Z" fill="#AF3FF3"/>
<path d="M254 226C254 230.104 252.542 231.84 250 235C247.25 235.875 247.25 235.875 245 236C246.616 233.959 248.286 231.959 250 230C250.66 230 251.32 230 252 230C252.66 228.68 253.32 227.36 254 226Z" fill="#6CCFE8"/>
<path d="M305 180C305 183 305 183 303.625 184.438C303.089 184.953 302.553 185.469 302 186C300.824 188.1 300.824 188.1 300 190C299.01 189.67 298.02 189.34 297 189C297.953 187.684 298.913 186.372 299.875 185.062C300.409 184.332 300.942 183.601 301.492 182.848C303 181 303 181 305 180Z" fill="#449EFC"/>
<path d="M256 25C258.475 25.99 258.475 25.99 261 27C261 27.99 261 28.98 261 30C259.02 30.99 259.02 30.99 257 32C256.67 29.69 256.34 27.38 256 25Z" fill="#30E9E4"/>
<path d="M282 401C284.962 401.613 286.381 402.254 289 404C286.03 406.475 286.03 406.475 283 409C283.021 408.051 283.041 407.103 283.062 406.125C283.226 403.093 283.226 403.093 282 401Z" fill="#6497EC"/>
<path d="M355 343C355.33 343.66 355.66 344.32 356 345C355.049 346.173 354.089 347.338 353.125 348.5C352.591 349.15 352.058 349.799 351.508 350.469C351.01 350.974 350.513 351.479 350 352C349.34 352 348.68 352 348 352C348 351.34 348 350.68 348 350C348.66 350 349.32 350 350 350C350.083 349.402 350.165 348.804 350.25 348.188C351.205 345.403 352.571 344.567 355 343Z" fill="#813ADB"/>
<path d="M364 328C364.66 328.33 365.32 328.66 366 329C365.192 330.336 364.378 331.669 363.562 333C363.11 333.743 362.658 334.485 362.191 335.25C361.798 335.827 361.405 336.405 361 337C360.67 337 360.34 337 360 337C360 334.36 360 331.72 360 329C360.99 329 361.98 329 363 329C363.33 328.67 363.66 328.34 364 328Z" fill="#A438FC"/>
<path d="M125 229C125.99 229 126.98 229 128 229C127.551 230.648 127.091 232.294 126.625 233.938C126.37 234.854 126.115 235.771 125.852 236.715C125 239 125 239 123 240C124 232.571 124 232.571 125 229Z" fill="#4BE46B"/>
<path d="M297 85C297.33 85 297.66 85 298 85C298.33 87.97 298.66 90.94 299 94C298.01 94.33 297.02 94.66 296 95C295.973 93.5209 295.954 92.0417 295.938 90.5625C295.926 89.7388 295.914 88.9151 295.902 88.0664C296 86 296 86 297 85Z" fill="#38BEF8"/>
<path d="M254 320C254.99 320.66 255.98 321.32 257 322C251.375 326 251.375 326 248 326C248.33 324.68 248.66 323.36 249 322C250.65 322 252.3 322 254 322C254 321.34 254 320.68 254 320Z" fill="#36B7FA"/>
<path d="M303 306C303 306.99 303 307.98 303 309C303.66 309.66 304.32 310.32 305 311C304.01 311.99 303.02 312.98 302 314C301.34 313.67 300.68 313.34 300 313C300.75 308.25 300.75 308.25 303 306Z" fill="#699EF1"/>
<path d="M264 304C265.98 304.99 265.98 304.99 268 306C267.25 310.75 267.25 310.75 265 313C264.299 309.847 264 307.273 264 304Z" fill="#3AAAF3"/>
<path d="M192 253C193.32 253.33 194.64 253.66 196 254C194.35 256.64 192.7 259.28 191 262C189.927 257.706 190.203 256.805 192 253Z" fill="#5AE3D0"/>
<path d="M334 242C334.99 242 335.98 242 337 242C335.707 244.884 334.341 246.872 332 249C331.01 248.67 330.02 248.34 329 248C329.99 247.67 330.98 247.34 332 247C332.662 245.02 332.662 245.02 333 243C333.33 242.67 333.66 242.34 334 242Z" fill="#9691E8"/>
<path d="M244 195C245.32 195.33 246.64 195.66 248 196C247.01 197.98 246.02 199.96 245 202C244.01 201.67 243.02 201.34 242 201C242 198 242 198 244 195Z" fill="#3FCBED"/>
<path d="M371 122C373.448 125.673 375 128.546 375 133C374.34 133 373.68 133 373 133C370.674 129.366 370.837 126.229 371 122Z" fill="#AB53E3"/>
<path d="M363 112C363.99 112.99 364.98 113.98 366 115C365.34 116.65 364.68 118.3 364 120C363.34 119.67 362.68 119.34 362 119C361.25 116.562 361.25 116.562 361 114C361.66 113.34 362.32 112.68 363 112Z" fill="#A63FFB"/>
<path d="M354 103C357 105 357 105 357.688 107.625C357.791 108.409 357.894 109.192 358 110C356.68 109.67 355.36 109.34 354 109C352.875 105.25 352.875 105.25 354 103Z" fill="#9F48F8"/>
<path d="M176 363C177.32 363 178.64 363 180 363C180.33 363.99 180.66 364.98 181 366C180.01 367.485 180.01 367.485 179 369C178.01 369 177.02 369 176 369C176 367.02 176 365.04 176 363Z" fill="#2FEFC9"/>
<path d="M275 344C275.99 344.33 276.98 344.66 278 345C277.34 347.31 276.68 349.62 276 352C275.34 351.67 274.68 351.34 274 351C274.33 348.69 274.66 346.38 275 344Z" fill="#419FFC"/>
<path d="M246 339C246.33 339 246.66 339 247 339C247.369 343.547 247.369 343.547 245.625 345.688C245.089 346.121 244.553 346.554 244 347C243.34 347.66 242.68 348.32 242 349C241.67 347.35 241.34 345.7 241 344C242.65 343.34 244.3 342.68 246 342C246 341.01 246 340.02 246 339Z" fill="#33B3F6"/>
<path d="M282 334C282.66 334 283.32 334 284 334C284 335.32 284 336.64 284 338C281.36 338.66 278.72 339.32 276 340C276.99 338.35 277.98 336.7 279 335C279.99 335.33 280.98 335.66 282 336C282 335.34 282 334.68 282 334Z" fill="#57A5F5"/>
<path d="M222 268C222 270 222 270 219.625 272.562C217 275 217 275 215 276C215.25 273.125 215.25 273.125 216 270C218.159 268.468 219.363 268 222 268Z" fill="#2FDEE5"/>
<path d="M368 119C368.99 119.33 369.98 119.66 371 120C371 121.98 371 123.96 371 126C369.68 125.34 368.36 124.68 367 124C367.33 122.35 367.66 120.7 368 119Z" fill="#9D31E9"/>
<path d="M276 41C277.32 41.99 278.64 42.98 280 44C279.34 45.32 278.68 46.64 278 48C277.34 48 276.68 48 276 48C274.875 43.25 274.875 43.25 276 41Z" fill="#36DBF4"/>
<path d="M239 15C243.389 15.5104 246.337 16.5221 250 19C248 20 248 20 246.09 19.5117C245.024 19.1037 245.024 19.1037 243.938 18.6875C243.225 18.4232 242.512 18.159 241.777 17.8867C240 17 240 17 239 15Z" fill="#5CDDD3"/>
<path d="M246 424C249 425 249 425 250.25 427.312C251.028 430.099 250.987 431.334 250 434C250 433.01 250 432.02 250 431C249.34 431 248.68 431 248 431C247.34 428.69 246.68 426.38 246 424Z" fill="#4195E1"/>
<path d="M157 373C158.32 373.33 159.64 373.66 161 374C161 374.66 161 375.32 161 376C161.99 376.33 162.98 376.66 164 377C164 377.66 164 378.32 164 379C164.99 379 165.98 379 167 379C167 379.66 167 380.32 167 381C162.277 379.509 162.277 379.509 160.875 376.938C160.586 376.298 160.298 375.659 160 375C159.01 374.67 158.02 374.34 157 374C157 373.67 157 373.34 157 373Z" fill="#5EE6B6"/>
<path d="M172 334C172.33 334 172.66 334 173 334C173 337.3 173 340.6 173 344C172.01 344 171.02 344 170 344C169.67 344.66 169.34 345.32 169 346C169 343 169 343 170 341C170.66 341 171.32 341 172 341C172 338.69 172 336.38 172 334Z" fill="#30F7BC"/>
<path d="M310 303C310.33 304.32 310.66 305.64 311 307C308.188 308.562 308.188 308.562 305 310C304.01 309.67 303.02 309.34 302 309C304.64 307.02 307.28 305.04 310 303Z" fill="#5085F5"/>
<path d="M121 241C121.99 241 122.98 241 124 241C124 243.31 124 245.62 124 248C123.34 248 122.68 248 122 248C122 247.34 122 246.68 122 246C121.34 246 120.68 246 120 246C120.33 244.35 120.66 242.7 121 241Z" fill="#60EF78"/>
<path d="M254 188C256.625 187.812 256.625 187.812 259 188C257.35 189.98 255.7 191.96 254 194C253.34 193.01 252.68 192.02 252 191C252.66 190.01 253.32 189.02 254 188Z" fill="#5ACCED"/>
<path d="M141 344C141.66 344.33 142.32 344.66 143 345C142.67 346.32 142.34 347.64 142 349C140.35 349.33 138.7 349.66 137 350C137.33 348.35 137.66 346.7 138 345C138.99 344.67 139.98 344.34 141 344Z" fill="#53F89B"/>
<path d="M198 307C198.66 307 199.32 307 200 307C199.25 314.75 199.25 314.75 197 317C196.875 310.375 196.875 310.375 198 307Z" fill="#56D9D1"/>
<path d="M206 292C206.625 293.812 206.625 293.812 207 296C206.01 297.485 206.01 297.485 205 299C205 299.66 205 300.32 205 301C204.34 301 203.68 301 203 301C203.75 294.25 203.75 294.25 206 292Z" fill="#31EAE2"/>
<path d="M276 293C276.66 293 277.32 293 278 293C278 293.66 278 294.32 278 295C278.66 295 279.32 295 280 295C279.34 296.32 278.68 297.64 278 299C277.01 298.67 276.02 298.34 275 298C275.33 296.35 275.66 294.7 276 293Z" fill="#4FA9ED"/>
<path d="M280 288C281.98 288 283.96 288 286 288C285.67 288.99 285.34 289.98 285 291C283.02 291 281.04 291 279 291C279.33 290.01 279.66 289.02 280 288Z" fill="#3898F0"/>
<path d="M369 279C370.32 279.33 371.64 279.66 373 280C373.33 281.32 373.66 282.64 374 284C373.34 284 372.68 284 372 284C371.34 284.66 370.68 285.32 370 286C369.67 283.69 369.34 281.38 369 279Z" fill="#AD4AEE"/>
<path d="M349 272C349.99 272 350.98 272 352 272C352.33 272.99 352.66 273.98 353 275C352.34 275 351.68 275 351 275C350.67 276.65 350.34 278.3 350 280C348.5 278.625 348.5 278.625 347 277C347 276.34 347 275.68 347 275C347.99 274.67 348.98 274.34 350 274C349.67 273.34 349.34 272.68 349 272Z" fill="#955FFC"/>
<path d="M270 211C270.66 211.33 271.32 211.66 272 212C270.88 215.36 269.628 216.691 267 219C266.34 219 265.68 219 265 219C265.542 215.204 267.201 213.528 270 211Z" fill="#54B5E7"/>
<path d="M148 194C148.99 194.33 149.98 194.66 151 195C150.67 195.66 150.34 196.32 150 197C150 197.99 150 198.98 150 200C148.35 199.67 146.7 199.34 145 199C146.875 195.125 146.875 195.125 148 194Z" fill="#46FB8C"/>
<path d="M325 145C326.125 146.75 326.125 146.75 327 149C326.125 151.25 326.125 151.25 325 153C324.34 152.34 323.68 151.68 323 151C323.556 146.444 323.556 146.444 325 145Z" fill="#697BFB"/>
<path d="M352 100C357.75 101.625 357.75 101.625 360 105C357.237 104.477 354.674 103.891 352 103C352 102.01 352 101.02 352 100Z" fill="#9F62E5"/>
<path d="M280 49C280.66 49 281.32 49 282 49C282.66 51.31 283.32 53.62 284 56C282.68 56 281.36 56 280 56C280 53.69 280 51.38 280 49Z" fill="#3CD3F5"/>
<path d="M293 391C295.475 391.99 295.475 391.99 298 393C296.68 394.32 295.36 395.64 294 397C293.34 396.34 292.68 395.68 292 395C292.375 392.875 292.375 392.875 293 391Z" fill="#5484F9"/>
<path d="M185 378C188.092 380.53 188.909 383.225 190 387C187 386 187 386 185 383C184.875 380.312 184.875 380.312 185 378Z" fill="#5CE4D8"/>
<path d="M260 312C260.66 312.33 261.32 312.66 262 313C261.67 314.65 261.34 316.3 261 318C260.01 318.33 259.02 318.66 258 319C257.67 317.68 257.34 316.36 257 315C257.66 315 258.32 315 259 315C259.33 314.01 259.66 313.02 260 312Z" fill="#32ACF9"/>
<path d="M307 262C307.99 262 308.98 262 310 262C310 262.66 310 263.32 310 264C310.66 264 311.32 264 312 264C311.67 264.99 311.34 265.98 311 267C309.68 266.67 308.36 266.34 307 266C307 264.68 307 263.36 307 262Z" fill="#4D8AF1"/>
<path d="M347 231C346.67 232.32 346.34 233.64 346 235C344.35 235.33 342.7 235.66 341 236C341 235.01 341 234.02 341 233C344.75 231 344.75 231 347 231Z" fill="#8467E9"/>
<path d="M182 156C182.33 156.99 182.66 157.98 183 159C181.25 161.062 181.25 161.062 179 163C177.68 162.67 176.36 162.34 175 162C177.31 160.02 179.62 158.04 182 156Z" fill="#74E9C1"/>
<path d="M188 150C188.66 150.33 189.32 150.66 190 151C189.01 152.65 188.02 154.3 187 156C185.68 155.67 184.36 155.34 183 155C183.66 155 184.32 155 185 155C185.464 154.041 185.464 154.041 185.938 153.062C187 151 187 151 188 150Z" fill="#60E8BD"/>
<path d="M280 44C282.5 45.375 282.5 45.375 285 47C285 47.66 285 48.32 285 49C282.562 48.625 282.562 48.625 280 48C279.67 47.34 279.34 46.68 279 46C279.33 45.34 279.66 44.68 280 44Z" fill="#3ECEE3"/>
<path d="M270 422C270 422.66 270 423.32 270 424C267.36 424.66 264.72 425.32 262 426C261.67 425.34 261.34 424.68 261 424C266.625 422 266.625 422 270 422Z" fill="#6196DE"/>
<path d="M268 416C269.32 416.66 270.64 417.32 272 418C271.67 419.32 271.34 420.64 271 422C270.34 422 269.68 422 269 422C268.67 421.34 268.34 420.68 268 420C267.34 419.34 266.68 418.68 266 418C266.66 418 267.32 418 268 418C268 417.34 268 416.68 268 416Z" fill="#3D8DF0"/>
<path d="M290 397C290.99 397.33 291.98 397.66 293 398C292.01 399.65 291.02 401.3 290 403C289.01 402.67 288.02 402.34 287 402C287.99 400.35 288.98 398.7 290 397Z" fill="#487DEE"/>
<path d="M140 352C141.32 352 142.64 352 144 352C144.625 353.875 144.625 353.875 145 356C144.34 356.66 143.68 357.32 143 358C140 354.25 140 354.25 140 352Z" fill="#61EDA0"/>
<path d="M290 320C290.625 321.812 290.625 321.812 291 324C289 327 289 327 286.875 327.688C286.256 327.791 285.637 327.894 285 328C285.33 327.01 285.66 326.02 286 325C286.66 325 287.32 325 288 325C288.66 323.35 289.32 321.7 290 320Z" fill="#76ACE7"/>
<path d="M324 289C324.66 289.33 325.32 289.66 326 290C326 291.667 326 293.333 326 295C324.68 294.67 323.36 294.34 322 294C322.875 290.125 322.875 290.125 324 289Z" fill="#5A6CEA"/>
<path d="M292 143C292 146.694 290.718 148.778 289 152C288.67 152 288.34 152 288 152C287.75 149.75 287.75 149.75 288 147C290 144.688 290 144.688 292 143Z" fill="#5DB5E9"/>
<path d="M372 131C372.33 131.66 372.66 132.32 373 133C373.66 133 374.32 133 375 133C375 134.65 375 136.3 375 138C374.67 137.34 374.34 136.68 374 136C371.975 135.348 371.975 135.348 370 135C370.66 133.68 371.32 132.36 372 131Z" fill="#992BE7"/>
</svg>
